<?xml version="1.0" standalone="no"?><!-- Generator: Gravit.io --><svg xmlns="http://www.w3.org/2000/svg" xmlns:xlink="http://www.w3.org/1999/xlink" style="isolation:isolate" viewBox="0 0 660 480" width="660" height="480"><defs><clipPath id="_clipPath_jv0jrT9vXRKPoWVHPR5fvUiyVz5ePoY6"><rect width="660" height="480"/></clipPath></defs><g clip-path="url(#_clipPath_jv0jrT9vXRKPoWVHPR5fvUiyVz5ePoY6)"><g transform="matrix(1,0,0,1,201,55.744)"><text transform="matrix(1,0,0,1,0,35.424)" style="font-family:&quot;Source Sans Pro&quot;;font-weight:400;font-size:36px;font-style:normal;fill:#FFFFFF;stroke:none;">2005 - </text><text transform="matrix(1,0,0,1,97.308,35.424)" style="font-family:&quot;Source Sans Pro&quot;;font-weight:700;font-size:36px;font-style:normal;fill:#FFFFFF;stroke:none;">Prefuse </text><text transform="matrix(1,0,0,1,226.656,35.424)" style="font-family:&quot;Source Sans Pro&quot;;font-weight:400;font-size:36px;font-style:normal;fill:#FFFFFF;stroke:none;">(Java)</text><text transform="matrix(1,0,0,1,0,125.928)" style="font-family:&quot;Source Sans Pro&quot;;font-weight:400;font-size:36px;font-style:normal;fill:#FFFFFF;stroke:none;">2007 - </text><text transform="matrix(1,0,0,1,97.308,125.928)" style="font-family:&quot;Source Sans Pro&quot;;font-weight:700;font-size:36px;font-style:normal;fill:#FFFFFF;stroke:none;">Flare </text><text transform="matrix(1,0,0,1,185.904,125.928)" style="font-family:&quot;Source Sans Pro&quot;;font-weight:400;font-size:36px;font-style:normal;fill:#FFFFFF;stroke:none;">(ActionScript)</text><text transform="matrix(1,0,0,1,0,216.432)" style="font-family:&quot;Source Sans Pro&quot;;font-weight:400;font-size:36px;font-style:normal;fill:#FFFFFF;stroke:none;">2009 - </text><text transform="matrix(1,0,0,1,97.308,216.432)" style="font-family:&quot;Source Sans Pro&quot;;font-weight:700;font-size:36px;font-style:normal;fill:#FFFFFF;stroke:none;">Protovis </text><text transform="matrix(1,0,0,1,239.148,216.432)" style="font-family:&quot;Source Sans Pro&quot;;font-weight:400;font-size:36px;font-style:normal;fill:#FFFFFF;stroke:none;">(Javascript)</text><text transform="matrix(1,0,0,1,0,306.936)" style="font-family:&quot;Source Sans Pro&quot;;font-weight:400;font-size:36px;font-style:normal;fill:#FFFFFF;stroke:none;">2011 - </text><text transform="matrix(1,0,0,1,97.308,306.936)" style="font-family:&quot;Source Sans Pro&quot;;font-weight:700;font-size:36px;font-style:normal;fill:#FFFFFF;stroke:none;">D3.js</text></g><line x1="100.5" y1="387" x2="100.5" y2="73" vector-effect="non-scaling-stroke" stroke-width="1" stroke="rgb(255,255,255)" stroke-linejoin="miter" stroke-linecap="square" stroke-miterlimit="3"/><path d=" M 95.5 382.5 L 100.5 392.5 L 105.5 382.5 L 100.5 386.5 L 95.5 382.5 Z " fill="rgb(255,255,255)" stroke="none"/><g transform="matrix(1,0,0,1,37,18)"><text transform="matrix(1,0,0,1,0,35.424)" style="font-family:&quot;Source Sans Pro&quot;;font-weight:400;font-size:36px;font-style:normal;fill:#FFFFFF;stroke:none;">Abstract</text></g><g transform="matrix(1,0,0,1,28,407)"><text transform="matrix(1,0,0,1,0,35.424)" style="font-family:&quot;Source Sans Pro&quot;;font-weight:400;font-size:36px;font-style:normal;fill:#FFFFFF;stroke:none;">Low-level</text></g></g></svg>