<?xml version="1.0" standalone="no"?><!-- Generator: Gravit.io --><svg xmlns="http://www.w3.org/2000/svg" xmlns:xlink="http://www.w3.org/1999/xlink" style="isolation:isolate" viewBox="0 0 660 480" width="660" height="480"><defs><clipPath id="_clipPath_URroGjH75AQ0wMM4yJynNZPEat7ZekNo"><rect width="660" height="480"/></clipPath></defs><g clip-path="url(#_clipPath_URroGjH75AQ0wMM4yJynNZPEat7ZekNo)"><rect x="78" y="80.618" width="307" height="93.382" transform="matrix(1,0,0,1,0,0)" fill="rgb(100,100,100)" fill-opacity="0.88"/><path d=" M 331.2 256.84 L 331.2 256.84 L 331.2 256.84 Q 331.2 255.66 331.57 254.71 L 331.57 254.71 L 331.57 254.71 Q 331.94 253.76 332.55 253.1 L 332.55 253.1 L 332.55 253.1 Q 333.16 252.44 333.96 252.08 L 333.96 252.08 L 333.96 252.08 Q 334.76 251.72 335.62 251.72 L 335.62 251.72 L 335.62 251.72 Q 336.52 251.72 337.2 252.06 L 337.2 252.06 L 337.2 252.06 Q 337.88 252.4 338.56 252.98 L 338.56 252.98 L 338.5 251.18 L 338.5 247.44 L 340.14 247.44 L 340.14 261.68 L 338.78 261.68 L 338.64 260.4 L 338.58 260.4 L 338.58 260.4 Q 337.98 261.02 337.15 261.47 L 337.15 261.47 L 337.15 261.47 Q 336.32 261.92 335.42 261.92 L 335.42 261.92 L 335.42 261.92 Q 334.46 261.92 333.69 261.58 L 333.69 261.58 L 333.69 261.58 Q 332.92 261.24 332.36 260.59 L 332.36 260.59 L 332.36 260.59 Q 331.8 259.94 331.5 259 L 331.5 259 L 331.5 259 Q 331.2 258.06 331.2 256.84 Z  M 332.9 256.82 L 332.9 256.82 L 332.9 256.82 Q 332.9 258.58 333.65 259.56 L 333.65 259.56 L 333.65 259.56 Q 334.4 260.54 335.76 260.54 L 335.76 260.54 L 335.76 260.54 Q 337.2 260.54 338.5 259.08 L 338.5 259.08 L 338.5 254.24 L 338.5 254.24 Q 337.84 253.62 337.21 253.36 L 337.21 253.36 L 337.21 253.36 Q 336.58 253.1 335.94 253.1 L 335.94 253.1 L 335.94 253.1 Q 335.3 253.1 334.75 253.37 L 334.75 253.37 L 334.75 253.37 Q 334.2 253.64 333.79 254.13 L 333.79 254.13 L 333.79 254.13 Q 333.38 254.62 333.14 255.3 L 333.14 255.3 L 333.14 255.3 Q 332.9 255.98 332.9 256.82 Z  M 343.12 260.18 L 343.94 259.1 L 343.94 259.1 Q 344.26 259.38 344.62 259.65 L 344.62 259.65 L 344.62 259.65 Q 344.98 259.92 345.41 260.12 L 345.41 260.12 L 345.41 260.12 Q 345.84 260.32 346.37 260.44 L 346.37 260.44 L 346.37 260.44 Q 346.9 260.56 347.54 260.56 L 347.54 260.56 L 347.54 260.56 Q 348.22 260.56 348.81 260.35 L 348.81 260.35 L 348.81 260.35 Q 349.4 260.14 349.84 259.76 L 349.84 259.76 L 349.84 259.76 Q 350.28 259.38 350.53 258.84 L 350.53 258.84 L 350.53 258.84 Q 350.78 258.3 350.78 257.64 L 350.78 257.64 L 350.78 257.64 Q 350.78 256.32 349.93 255.58 L 349.93 255.58 L 349.93 255.58 Q 349.08 254.84 347.64 254.84 L 347.64 254.84 L 347.64 254.84 Q 346.84 254.84 346.28 255.04 L 346.28 255.04 L 346.28 255.04 Q 345.72 255.24 345.04 255.62 L 345.04 255.62 L 344.16 255.06 L 344.58 248.92 L 351.8 248.92 L 351.8 250.34 L 346.04 250.34 L 345.7 254.12 L 345.7 254.12 Q 346.26 253.88 346.79 253.74 L 346.79 253.74 L 346.79 253.74 Q 347.32 253.6 348.06 253.6 L 348.06 253.6 L 348.06 253.6 Q 348.98 253.6 349.78 253.84 L 349.78 253.84 L 349.78 253.84 Q 350.58 254.08 351.17 254.57 L 351.17 254.57 L 351.17 254.57 Q 351.76 255.06 352.1 255.81 L 352.1 255.81 L 352.1 255.81 Q 352.44 256.56 352.44 257.6 L 352.44 257.6 L 352.44 257.6 Q 352.44 258.64 352.05 259.44 L 352.05 259.44 L 352.05 259.44 Q 351.66 260.24 351 260.79 L 351 260.79 L 351 260.79 Q 350.34 261.34 349.49 261.63 L 349.49 261.63 L 349.49 261.63 Q 348.64 261.92 347.72 261.92 L 347.72 261.92 L 347.72 261.92 Q 346.86 261.92 346.17 261.77 L 346.17 261.77 L 346.17 261.77 Q 345.48 261.62 344.93 261.38 L 344.93 261.38 L 344.93 261.38 Q 344.38 261.14 343.93 260.83 L 343.93 260.83 L 343.93 260.83 Q 343.48 260.52 343.12 260.18 L 343.12 260.18 Z  M 355.98 263.76 L 360.18 263.76 L 360.18 248.48 L 355.98 248.48 L 355.98 247.52 L 361.5 247.52 L 361.5 264.72 L 355.98 264.72 L 355.98 263.76 Z  M 271.2 256.84 L 271.2 256.84 L 271.2 256.84 Q 271.2 255.66 271.57 254.71 L 271.57 254.71 L 271.57 254.71 Q 271.94 253.76 272.55 253.1 L 272.55 253.1 L 272.55 253.1 Q 273.16 252.44 273.96 252.08 L 273.96 252.08 L 273.96 252.08 Q 274.76 251.72 275.62 251.72 L 275.62 251.72 L 275.62 251.72 Q 276.52 251.72 277.2 252.06 L 277.2 252.06 L 277.2 252.06 Q 277.88 252.4 278.56 252.98 L 278.56 252.98 L 278.5 251.18 L 278.5 247.44 L 280.14 247.44 L 280.14 261.68 L 278.78 261.68 L 278.64 260.4 L 278.58 260.4 L 278.58 260.4 Q 277.98 261.02 277.15 261.47 L 277.15 261.47 L 277.15 261.47 Q 276.32 261.92 275.42 261.92 L 275.42 261.92 L 275.42 261.92 Q 274.46 261.92 273.69 261.58 L 273.69 261.58 L 273.69 261.58 Q 272.92 261.24 272.36 260.59 L 272.36 260.59 L 272.36 260.59 Q 271.8 259.94 271.5 259 L 271.5 259 L 271.5 259 Q 271.2 258.06 271.2 256.84 Z  M 272.9 256.82 L 272.9 256.82 L 272.9 256.82 Q 272.9 258.58 273.65 259.56 L 273.65 259.56 L 273.65 259.56 Q 274.4 260.54 275.76 260.54 L 275.76 260.54 L 275.76 260.54 Q 277.2 260.54 278.5 259.08 L 278.5 259.08 L 278.5 254.24 L 278.5 254.24 Q 277.84 253.62 277.21 253.36 L 277.21 253.36 L 277.21 253.36 Q 276.58 253.1 275.94 253.1 L 275.94 253.1 L 275.94 253.1 Q 275.3 253.1 274.75 253.37 L 274.75 253.37 L 274.75 253.37 Q 274.2 253.64 273.79 254.13 L 273.79 254.13 L 273.79 254.13 Q 273.38 254.62 273.14 255.3 L 273.14 255.3 L 273.14 255.3 Q 272.9 255.98 272.9 256.82 Z  M 284.6 256.84 L 289.36 256.84 L 289.36 252.88 L 289.36 252.88 Q 289.38 252.36 289.4 251.75 L 289.4 251.75 L 289.4 251.75 Q 289.42 251.14 289.46 250.62 L 289.46 250.62 L 289.36 250.62 L 289.36 250.62 Q 289.06 251.08 288.72 251.55 L 288.72 251.55 L 288.72 251.55 Q 288.38 252.02 288.06 252.48 L 288.06 252.48 L 284.6 256.84 Z  M 292.9 256.84 L 292.9 258.16 L 290.92 258.16 L 290.92 261.68 L 289.36 261.68 L 289.36 258.16 L 282.78 258.16 L 282.78 257.06 L 289.16 248.92 L 290.92 248.92 L 290.92 256.84 L 292.9 256.84 Z  M 298.4 265.94 L 297.94 264.9 L 297.94 264.9 Q 299.18 264.34 299.8 263.55 L 299.8 263.55 L 299.8 263.55 Q 300.42 262.76 300.46 261.56 L 300.46 261.56 L 300.46 261.56 Q 300.36 261.58 300.27 261.59 L 300.27 261.59 L 300.27 261.59 Q 300.18 261.6 300.08 261.6 L 300.08 261.6 L 300.08 261.6 Q 299.44 261.6 298.98 261.23 L 298.98 261.23 L 298.98 261.23 Q 298.52 260.86 298.52 260.1 L 298.52 260.1 L 298.52 260.1 Q 298.52 259.36 299 258.97 L 299 258.97 L 299 258.97 Q 299.48 258.58 300.12 258.58 L 300.12 258.58 L 300.12 258.58 Q 301.02 258.58 301.47 259.27 L 301.47 259.27 L 301.47 259.27 Q 301.92 259.96 301.92 261.14 L 301.92 261.14 L 301.92 261.14 Q 301.92 262.9 300.99 264.11 L 300.99 264.11 L 300.99 264.11 Q 300.06 265.32 298.4 265.94 L 298.4 265.94 Z  M 211.2 256.84 L 211.2 256.84 L 211.2 256.84 Q 211.2 255.66 211.57 254.71 L 211.57 254.71 L 211.57 254.71 Q 211.94 253.76 212.55 253.1 L 212.55 253.1 L 212.55 253.1 Q 213.16 252.44 213.96 252.08 L 213.96 252.08 L 213.96 252.08 Q 214.76 251.72 215.62 251.72 L 215.62 251.72 L 215.62 251.72 Q 216.52 251.72 217.2 252.06 L 217.2 252.06 L 217.2 252.06 Q 217.88 252.4 218.56 252.98 L 218.56 252.98 L 218.5 251.18 L 218.5 247.44 L 220.14 247.44 L 220.14 261.68 L 218.78 261.68 L 218.64 260.4 L 218.58 260.4 L 218.58 260.4 Q 217.98 261.02 217.15 261.47 L 217.15 261.47 L 217.15 261.47 Q 216.32 261.92 215.42 261.92 L 215.42 261.92 L 215.42 261.92 Q 214.46 261.92 213.69 261.58 L 213.69 261.58 L 213.69 261.58 Q 212.92 261.24 212.36 260.59 L 212.36 260.59 L 212.36 260.59 Q 211.8 259.94 211.5 259 L 211.5 259 L 211.5 259 Q 211.2 258.06 211.2 256.84 Z  M 212.9 256.82 L 212.9 256.82 L 212.9 256.82 Q 212.9 258.58 213.65 259.56 L 213.65 259.56 L 213.65 259.56 Q 214.4 260.54 215.76 260.54 L 215.76 260.54 L 215.76 260.54 Q 217.2 260.54 218.5 259.08 L 218.5 259.08 L 218.5 254.24 L 218.5 254.24 Q 217.84 253.62 217.21 253.36 L 217.21 253.36 L 217.21 253.36 Q 216.58 253.1 215.94 253.1 L 215.94 253.1 L 215.94 253.1 Q 215.3 253.1 214.75 253.37 L 214.75 253.37 L 214.75 253.37 Q 214.2 253.64 213.79 254.13 L 213.79 254.13 L 213.79 254.13 Q 213.38 254.62 213.14 255.3 L 213.14 255.3 L 213.14 255.3 Q 212.9 255.98 212.9 256.82 Z  M 223.14 260.12 L 223.98 259.04 L 223.98 259.04 Q 224.62 259.64 225.51 260.1 L 225.51 260.1 L 225.51 260.1 Q 226.4 260.56 227.64 260.56 L 227.64 260.56 L 227.64 260.56 Q 228.3 260.56 228.86 260.39 L 228.86 260.39 L 228.86 260.39 Q 229.42 260.22 229.83 259.92 L 229.83 259.92 L 229.83 259.92 Q 230.24 259.62 230.47 259.19 L 230.47 259.19 L 230.47 259.19 Q 230.7 258.76 230.7 258.22 L 230.7 258.22 L 230.7 258.22 Q 230.7 257.66 230.45 257.19 L 230.45 257.19 L 230.45 257.19 Q 230.2 256.72 229.64 256.38 L 229.64 256.38 L 229.64 256.38 Q 229.08 256.04 228.2 255.86 L 228.2 255.86 L 228.2 255.86 Q 227.32 255.68 226.06 255.68 L 226.06 255.68 L 226.06 254.42 L 226.06 254.42 Q 227.2 254.42 227.99 254.24 L 227.99 254.24 L 227.99 254.24 Q 228.78 254.06 229.28 253.74 L 229.28 253.74 L 229.28 253.74 Q 229.78 253.42 230.01 252.98 L 230.01 252.98 L 230.01 252.98 Q 230.24 252.54 230.24 252.04 L 230.24 252.04 L 230.24 252.04 Q 230.24 251.1 229.53 250.56 L 229.53 250.56 L 229.53 250.56 Q 228.82 250.02 227.64 250.02 L 227.64 250.02 L 227.64 250.02 Q 226.74 250.02 225.94 250.38 L 225.94 250.38 L 225.94 250.38 Q 225.14 250.74 224.5 251.32 L 224.5 251.32 L 223.62 250.28 L 223.62 250.28 Q 224.42 249.58 225.44 249.13 L 225.44 249.13 L 225.44 249.13 Q 226.46 248.68 227.7 248.68 L 227.7 248.68 L 227.7 248.68 Q 228.6 248.68 229.37 248.9 L 229.37 248.9 L 229.37 248.9 Q 230.14 249.12 230.71 249.53 L 230.71 249.53 L 230.71 249.53 Q 231.28 249.94 231.6 250.54 L 231.6 250.54 L 231.6 250.54 Q 231.92 251.14 231.92 251.92 L 231.92 251.92 L 231.92 251.92 Q 231.92 253.08 231.16 253.82 L 231.16 253.82 L 231.16 253.82 Q 230.4 254.56 229.2 254.96 L 229.2 254.96 L 229.2 255.04 L 229.2 255.04 Q 229.84 255.18 230.41 255.45 L 230.41 255.45 L 230.41 255.45 Q 230.98 255.72 231.42 256.13 L 231.42 256.13 L 231.42 256.13 Q 231.86 256.54 232.11 257.08 L 232.11 257.08 L 232.11 257.08 Q 232.36 257.62 232.36 258.28 L 232.36 258.28 L 232.36 258.28 Q 232.36 259.12 232 259.8 L 232 259.8 L 232 259.8 Q 231.64 260.48 231.01 260.95 L 231.01 260.95 L 231.01 260.95 Q 230.38 261.42 229.54 261.67 L 229.54 261.67 L 229.54 261.67 Q 228.7 261.92 227.74 261.92 L 227.74 261.92 L 227.74 261.92 Q 226.08 261.92 224.96 261.37 L 224.96 261.37 L 224.96 261.37 Q 223.84 260.82 223.14 260.12 L 223.14 260.12 Z  M 238.4 265.94 L 237.94 264.9 L 237.94 264.9 Q 239.18 264.34 239.8 263.55 L 239.8 263.55 L 239.8 263.55 Q 240.42 262.76 240.46 261.56 L 240.46 261.56 L 240.46 261.56 Q 240.36 261.58 240.27 261.59 L 240.27 261.59 L 240.27 261.59 Q 240.18 261.6 240.08 261.6 L 240.08 261.6 L 240.08 261.6 Q 239.44 261.6 238.98 261.23 L 238.98 261.23 L 238.98 261.23 Q 238.52 260.86 238.52 260.1 L 238.52 260.1 L 238.52 260.1 Q 238.52 259.36 239 258.97 L 239 258.97 L 239 258.97 Q 239.48 258.58 240.12 258.58 L 240.12 258.58 L 240.12 258.58 Q 241.02 258.58 241.47 259.27 L 241.47 259.27 L 241.47 259.27 Q 241.92 259.96 241.92 261.14 L 241.92 261.14 L 241.92 261.14 Q 241.92 262.9 240.99 264.11 L 240.99 264.11 L 240.99 264.11 Q 240.06 265.32 238.4 265.94 L 238.4 265.94 Z  M 151.2 256.84 L 151.2 256.84 L 151.2 256.84 Q 151.2 255.66 151.57 254.71 L 151.57 254.71 L 151.57 254.71 Q 151.94 253.76 152.55 253.1 L 152.55 253.1 L 152.55 253.1 Q 153.16 252.44 153.96 252.08 L 153.96 252.08 L 153.96 252.08 Q 154.76 251.72 155.62 251.72 L 155.62 251.72 L 155.62 251.72 Q 156.52 251.72 157.2 252.06 L 157.2 252.06 L 157.2 252.06 Q 157.88 252.4 158.56 252.98 L 158.56 252.98 L 158.5 251.18 L 158.5 247.44 L 160.14 247.44 L 160.14 261.68 L 158.78 261.68 L 158.64 260.4 L 158.58 260.4 L 158.58 260.4 Q 157.98 261.02 157.15 261.47 L 157.15 261.47 L 157.15 261.47 Q 156.32 261.92 155.42 261.92 L 155.42 261.92 L 155.42 261.92 Q 154.46 261.92 153.69 261.58 L 153.69 261.58 L 153.69 261.58 Q 152.92 261.24 152.36 260.59 L 152.36 260.59 L 152.36 260.59 Q 151.8 259.94 151.5 259 L 151.5 259 L 151.5 259 Q 151.2 258.06 151.2 256.84 Z  M 152.9 256.82 L 152.9 256.82 L 152.9 256.82 Q 152.9 258.58 153.65 259.56 L 153.65 259.56 L 153.65 259.56 Q 154.4 260.54 155.76 260.54 L 155.76 260.54 L 155.76 260.54 Q 157.2 260.54 158.5 259.08 L 158.5 259.08 L 158.5 254.24 L 158.5 254.24 Q 157.84 253.62 157.21 253.36 L 157.21 253.36 L 157.21 253.36 Q 156.58 253.1 155.94 253.1 L 155.94 253.1 L 155.94 253.1 Q 155.3 253.1 154.75 253.37 L 154.75 253.37 L 154.75 253.37 Q 154.2 253.64 153.79 254.13 L 153.79 254.13 L 153.79 254.13 Q 153.38 254.62 153.14 255.3 L 153.14 255.3 L 153.14 255.3 Q 152.9 255.98 152.9 256.82 Z  M 163.46 261.68 L 163.46 260.7 L 163.46 260.7 Q 165.08 259.26 166.33 258.1 L 166.33 258.1 L 166.33 258.1 Q 167.58 256.94 168.43 255.97 L 168.43 255.97 L 168.43 255.97 Q 169.28 255 169.72 254.16 L 169.72 254.16 L 169.72 254.16 Q 170.16 253.32 170.16 252.52 L 170.16 252.52 L 170.16 252.52 Q 170.16 251.42 169.48 250.72 L 169.48 250.72 L 169.48 250.72 Q 168.8 250.02 167.38 250.02 L 167.38 250.02 L 167.38 250.02 Q 166.48 250.02 165.71 250.47 L 165.71 250.47 L 165.71 250.47 Q 164.94 250.92 164.32 251.56 L 164.32 251.56 L 163.38 250.62 L 163.38 250.62 Q 164.24 249.74 165.23 249.21 L 165.23 249.21 L 165.23 249.21 Q 166.22 248.68 167.58 248.68 L 167.58 248.68 L 167.58 248.68 Q 168.54 248.68 169.31 248.95 L 169.31 248.95 L 169.31 248.95 Q 170.08 249.22 170.62 249.71 L 170.62 249.71 L 170.62 249.71 Q 171.16 250.2 171.45 250.9 L 171.45 250.9 L 171.45 250.9 Q 171.74 251.6 171.74 252.44 L 171.74 252.44 L 171.74 252.44 Q 171.74 253.34 171.31 254.25 L 171.31 254.25 L 171.31 254.25 Q 170.88 255.16 170.1 256.13 L 170.1 256.13 L 170.1 256.13 Q 169.32 257.1 168.24 258.15 L 168.24 258.15 L 168.24 258.15 Q 167.16 259.2 165.86 260.38 L 165.86 260.38 L 165.86 260.38 Q 166.44 260.34 167.05 260.3 L 167.05 260.3 L 167.05 260.3 Q 167.66 260.26 168.24 260.26 L 168.24 260.26 L 172.44 260.26 L 172.44 261.68 L 163.46 261.68 Z  M 178.4 265.94 L 177.94 264.9 L 177.94 264.9 Q 179.18 264.34 179.8 263.55 L 179.8 263.55 L 179.8 263.55 Q 180.42 262.76 180.46 261.56 L 180.46 261.56 L 180.46 261.56 Q 180.36 261.58 180.27 261.59 L 180.27 261.59 L 180.27 261.59 Q 180.18 261.6 180.08 261.6 L 180.08 261.6 L 180.08 261.6 Q 179.44 261.6 178.98 261.23 L 178.98 261.23 L 178.98 261.23 Q 178.52 260.86 178.52 260.1 L 178.52 260.1 L 178.52 260.1 Q 178.52 259.36 179 258.97 L 179 258.97 L 179 258.97 Q 179.48 258.58 180.12 258.58 L 180.12 258.58 L 180.12 258.58 Q 181.02 258.58 181.47 259.27 L 181.47 259.27 L 181.47 259.27 Q 181.92 259.96 181.92 261.14 L 181.92 261.14 L 181.92 261.14 Q 181.92 262.9 180.99 264.11 L 180.99 264.11 L 180.99 264.11 Q 180.06 265.32 178.4 265.94 L 178.4 265.94 Z  M 82.52 264.72 L 82.52 247.52 L 88.04 247.52 L 88.04 248.48 L 83.82 248.48 L 83.82 263.76 L 88.04 263.76 L 88.04 264.72 L 82.52 264.72 Z  M 91.2 256.84 L 91.2 256.84 L 91.2 256.84 Q 91.2 255.66 91.57 254.71 L 91.57 254.71 L 91.57 254.71 Q 91.94 253.76 92.55 253.1 L 92.55 253.1 L 92.55 253.1 Q 93.16 252.44 93.96 252.08 L 93.96 252.08 L 93.96 252.08 Q 94.76 251.72 95.62 251.72 L 95.62 251.72 L 95.62 251.72 Q 96.52 251.72 97.2 252.06 L 97.2 252.06 L 97.2 252.06 Q 97.88 252.4 98.56 252.98 L 98.56 252.98 L 98.5 251.18 L 98.5 247.44 L 100.14 247.44 L 100.14 261.68 L 98.78 261.68 L 98.64 260.4 L 98.58 260.4 L 98.58 260.4 Q 97.98 261.02 97.15 261.47 L 97.15 261.47 L 97.15 261.47 Q 96.32 261.92 95.42 261.92 L 95.42 261.92 L 95.42 261.92 Q 94.46 261.92 93.69 261.58 L 93.69 261.58 L 93.69 261.58 Q 92.92 261.24 92.36 260.59 L 92.36 260.59 L 92.36 260.59 Q 91.8 259.94 91.5 259 L 91.5 259 L 91.5 259 Q 91.2 258.06 91.2 256.84 Z  M 92.9 256.82 L 92.9 256.82 L 92.9 256.82 Q 92.9 258.58 93.65 259.56 L 93.65 259.56 L 93.65 259.56 Q 94.4 260.54 95.76 260.54 L 95.76 260.54 L 95.76 260.54 Q 97.2 260.54 98.5 259.08 L 98.5 259.08 L 98.5 254.24 L 98.5 254.24 Q 97.84 253.62 97.21 253.36 L 97.21 253.36 L 97.21 253.36 Q 96.58 253.1 95.94 253.1 L 95.94 253.1 L 95.94 253.1 Q 95.3 253.1 94.75 253.37 L 94.75 253.37 L 94.75 253.37 Q 94.2 253.64 93.79 254.13 L 93.79 254.13 L 93.79 254.13 Q 93.38 254.62 93.14 255.3 L 93.14 255.3 L 93.14 255.3 Q 92.9 255.98 92.9 256.82 Z  M 109.22 260.32 L 112.56 260.32 L 112.56 261.68 L 103.96 261.68 L 103.96 260.32 L 107.58 260.32 L 107.58 250.92 L 104.86 250.92 L 104.86 249.86 L 104.86 249.86 Q 105.88 249.7 106.64 249.47 L 106.64 249.47 L 106.64 249.47 Q 107.4 249.24 108 248.92 L 108 248.92 L 109.22 248.92 L 109.22 260.32 Z  M 118.4 265.94 L 117.94 264.9 L 117.94 264.9 Q 119.18 264.34 119.8 263.55 L 119.8 263.55 L 119.8 263.55 Q 120.42 262.76 120.46 261.56 L 120.46 261.56 L 120.46 261.56 Q 120.36 261.58 120.27 261.59 L 120.27 261.59 L 120.27 261.59 Q 120.18 261.6 120.08 261.6 L 120.08 261.6 L 120.08 261.6 Q 119.44 261.6 118.98 261.23 L 118.98 261.23 L 118.98 261.23 Q 118.52 260.86 118.52 260.1 L 118.52 260.1 L 118.52 260.1 Q 118.52 259.36 119 258.97 L 119 258.97 L 119 258.97 Q 119.48 258.58 120.12 258.58 L 120.12 258.58 L 120.12 258.58 Q 121.02 258.58 121.47 259.27 L 121.47 259.27 L 121.47 259.27 Q 121.92 259.96 121.92 261.14 L 121.92 261.14 L 121.92 261.14 Q 121.92 262.9 120.99 264.11 L 120.99 264.11 L 120.99 264.11 Q 120.06 265.32 118.4 265.94 L 118.4 265.94 Z " fill-rule="evenodd" fill="rgb(255,255,255)"/><path d=" M 93 142.5 C 93 133.669 100.169 126.5 109 126.5 C 117.831 126.5 125 133.669 125 142.5 C 125 151.331 117.831 158.5 109 158.5 C 100.169 158.5 93 151.331 93 142.5 Z " fill="rgb(235,235,235)"/><path d=" M 153.5 142.5 C 153.5 133.669 160.669 126.5 169.5 126.5 C 178.331 126.5 185.5 133.669 185.5 142.5 C 185.5 151.331 178.331 158.5 169.5 158.5 C 160.669 158.5 153.5 151.331 153.5 142.5 Z " fill="rgb(235,235,235)"/><path d=" M 214 142.5 C 214 133.669 221.169 126.5 230 126.5 C 238.831 126.5 246 133.669 246 142.5 C 246 151.331 238.831 158.5 230 158.5 C 221.169 158.5 214 151.331 214 142.5 Z " fill="rgb(235,235,235)"/><path d=" M 274.5 142.5 C 274.5 133.669 281.669 126.5 290.5 126.5 C 299.331 126.5 306.5 133.669 306.5 142.5 C 306.5 151.331 299.331 158.5 290.5 158.5 C 281.669 158.5 274.5 151.331 274.5 142.5 Z " fill="rgb(235,235,235)"/><path d=" M 335 142.5 C 335 133.669 342.169 126.5 351 126.5 C 359.831 126.5 367 133.669 367 142.5 C 367 151.331 359.831 158.5 351 158.5 C 342.169 158.5 335 151.331 335 142.5 Z " fill="rgb(235,235,235)"/><line x1="229" y1="195" x2="229" y2="230" vector-effect="non-scaling-stroke" stroke-width="3" stroke="rgb(235,235,235)" stroke-linejoin="miter" stroke-linecap="round" stroke-miterlimit="3"/><path d=" M 237.66 203.485 L 229 186.165 L 220.34 203.485 L 229 196.557 L 237.66 203.485 Z " fill="rgb(235,235,235)" stroke="none"/><path d=" M 251.963 213.641 L 251.963 199.363 L 255.996 199.363 L 255.996 199.363 Q 258.838 199.363 260.107 200.213 L 260.107 200.213 L 260.107 200.213 Q 261.377 201.063 261.377 202.898 L 261.377 202.898 L 261.377 202.898 Q 261.377 204.168 260.669 204.993 L 260.669 204.993 L 260.669 204.993 Q 259.961 205.818 258.604 206.063 L 258.604 206.063 L 258.604 206.16 L 258.604 206.16 Q 261.855 206.717 261.855 209.578 L 261.855 209.578 L 261.855 209.578 Q 261.855 211.492 260.562 212.566 L 260.562 212.566 L 260.562 212.566 Q 259.268 213.641 256.943 213.641 L 256.943 213.641 L 251.963 213.641 Z  M 253.623 200.799 L 253.623 205.477 L 256.357 205.477 L 256.357 205.477 Q 258.115 205.477 258.887 204.925 L 258.887 204.925 L 258.887 204.925 Q 259.658 204.373 259.658 203.064 L 259.658 203.064 L 259.658 203.064 Q 259.658 201.863 258.799 201.331 L 258.799 201.331 L 258.799 201.331 Q 257.939 200.799 256.064 200.799 L 256.064 200.799 L 253.623 200.799 Z  M 256.465 206.883 L 253.623 206.883 L 253.623 212.225 L 256.602 212.225 L 256.602 212.225 Q 258.33 212.225 259.204 211.556 L 259.204 211.556 L 259.204 211.556 Q 260.078 210.887 260.078 209.461 L 260.078 209.461 L 260.078 209.461 Q 260.078 208.133 259.185 207.508 L 259.185 207.508 L 259.185 207.508 Q 258.291 206.883 256.465 206.883 L 256.465 206.883 Z  M 266.299 202.938 L 266.299 213.641 L 264.678 213.641 L 264.678 202.938 L 266.299 202.938 Z  M 264.541 200.037 L 264.541 200.037 L 264.541 200.037 Q 264.541 199.48 264.814 199.222 L 264.814 199.222 L 264.814 199.222 Q 265.088 198.963 265.498 198.963 L 265.498 198.963 L 265.498 198.963 Q 265.889 198.963 266.172 199.227 L 266.172 199.227 L 266.172 199.227 Q 266.455 199.49 266.455 200.037 L 266.455 200.037 L 266.455 200.037 Q 266.455 200.584 266.172 200.853 L 266.172 200.853 L 266.172 200.853 Q 265.889 201.121 265.498 201.121 L 265.498 201.121 L 265.498 201.121 Q 265.088 201.121 264.814 200.853 L 264.814 200.853 L 264.814 200.853 Q 264.541 200.584 264.541 200.037 Z  M 278.682 213.641 L 277.061 213.641 L 277.061 206.717 L 277.061 206.717 Q 277.061 205.408 276.465 204.764 L 276.465 204.764 L 276.465 204.764 Q 275.869 204.119 274.6 204.119 L 274.6 204.119 L 274.6 204.119 Q 272.92 204.119 272.139 205.027 L 272.139 205.027 L 272.139 205.027 Q 271.357 205.936 271.357 208.025 L 271.357 208.025 L 271.357 213.641 L 269.736 213.641 L 269.736 202.938 L 271.055 202.938 L 271.318 204.402 L 271.396 204.402 L 271.396 204.402 Q 271.895 203.611 272.793 203.177 L 272.793 203.177 L 272.793 203.177 Q 273.691 202.742 274.795 202.742 L 274.795 202.742 L 274.795 202.742 Q 276.729 202.742 277.705 203.675 L 277.705 203.675 L 277.705 203.675 Q 278.682 204.607 278.682 206.658 L 278.682 206.658 L 278.682 213.641 Z  M 289.512 213.641 L 289.297 212.205 L 289.209 212.205 L 289.209 212.205 Q 288.086 213.836 285.85 213.836 L 285.85 213.836 L 285.85 213.836 Q 283.75 213.836 282.583 212.4 L 282.583 212.4 L 282.583 212.4 Q 281.416 210.965 281.416 208.318 L 281.416 208.318 L 281.416 208.318 Q 281.416 205.672 282.588 204.207 L 282.588 204.207 L 282.588 204.207 Q 283.76 202.742 285.85 202.742 L 285.85 202.742 L 285.85 202.742 Q 288.027 202.742 289.189 204.324 L 289.189 204.324 L 289.316 204.324 L 289.248 203.553 L 289.209 202.801 L 289.209 198.445 L 290.83 198.445 L 290.83 213.641 L 289.512 213.641 Z  M 286.055 212.479 L 286.055 212.479 L 286.055 212.479 Q 287.715 212.479 288.462 211.575 L 288.462 211.575 L 288.462 211.575 Q 289.209 210.672 289.209 208.66 L 289.209 208.66 L 289.209 208.318 L 289.209 208.318 Q 289.209 206.043 288.452 205.071 L 288.452 205.071 L 288.452 205.071 Q 287.695 204.1 286.035 204.1 L 286.035 204.1 L 286.035 204.1 Q 284.609 204.1 283.853 205.208 L 283.853 205.208 L 283.853 205.208 Q 283.096 206.316 283.096 208.338 L 283.096 208.338 L 283.096 208.338 Q 283.096 210.389 283.848 211.434 L 283.848 211.434 L 283.848 211.434 Q 284.6 212.479 286.055 212.479 Z  M 295.889 202.938 L 295.889 213.641 L 294.268 213.641 L 294.268 202.938 L 295.889 202.938 Z  M 294.131 200.037 L 294.131 200.037 L 294.131 200.037 Q 294.131 199.48 294.404 199.222 L 294.404 199.222 L 294.404 199.222 Q 294.678 198.963 295.088 198.963 L 295.088 198.963 L 295.088 198.963 Q 295.479 198.963 295.762 199.227 L 295.762 199.227 L 295.762 199.227 Q 296.045 199.49 296.045 200.037 L 296.045 200.037 L 296.045 200.037 Q 296.045 200.584 295.762 200.853 L 295.762 200.853 L 295.762 200.853 Q 295.479 201.121 295.088 201.121 L 295.088 201.121 L 295.088 201.121 Q 294.678 201.121 294.404 200.853 L 294.404 200.853 L 294.404 200.853 Q 294.131 200.584 294.131 200.037 Z  M 308.271 213.641 L 306.65 213.641 L 306.65 206.717 L 306.65 206.717 Q 306.65 205.408 306.055 204.764 L 306.055 204.764 L 306.055 204.764 Q 305.459 204.119 304.189 204.119 L 304.189 204.119 L 304.189 204.119 Q 302.51 204.119 301.729 205.027 L 301.729 205.027 L 301.729 205.027 Q 300.947 205.936 300.947 208.025 L 300.947 208.025 L 300.947 213.641 L 299.326 213.641 L 299.326 202.938 L 300.645 202.938 L 300.908 204.402 L 300.986 204.402 L 300.986 204.402 Q 301.484 203.611 302.383 203.177 L 302.383 203.177 L 302.383 203.177 Q 303.281 202.742 304.385 202.742 L 304.385 202.742 L 304.385 202.742 Q 306.318 202.742 307.295 203.675 L 307.295 203.675 L 307.295 203.675 Q 308.271 204.607 308.271 206.658 L 308.271 206.658 L 308.271 213.641 Z  M 316.66 202.938 L 320.361 202.938 L 320.361 203.963 L 318.379 204.197 L 318.379 204.197 Q 318.652 204.539 318.867 205.091 L 318.867 205.091 L 318.867 205.091 Q 319.082 205.643 319.082 206.336 L 319.082 206.336 L 319.082 206.336 Q 319.082 207.908 318.008 208.846 L 318.008 208.846 L 318.008 208.846 Q 316.934 209.783 315.059 209.783 L 315.059 209.783 L 315.059 209.783 Q 314.58 209.783 314.16 209.705 L 314.16 209.705 L 314.16 209.705 Q 313.125 210.252 313.125 211.082 L 313.125 211.082 L 313.125 211.082 Q 313.125 211.521 313.486 211.731 L 313.486 211.731 L 313.486 211.731 Q 313.848 211.941 314.727 211.941 L 314.727 211.941 L 316.621 211.941 L 316.621 211.941 Q 318.359 211.941 319.292 212.674 L 319.292 212.674 L 319.292 212.674 Q 320.225 213.406 320.225 214.803 L 320.225 214.803 L 320.225 214.803 Q 320.225 216.58 318.799 217.513 L 318.799 217.513 L 318.799 217.513 Q 317.373 218.445 314.639 218.445 L 314.639 218.445 L 314.639 218.445 Q 312.539 218.445 311.401 217.664 L 311.401 217.664 L 311.401 217.664 Q 310.264 216.883 310.264 215.457 L 310.264 215.457 L 310.264 215.457 Q 310.264 214.48 310.889 213.768 L 310.889 213.768 L 310.889 213.768 Q 311.514 213.055 312.646 212.801 L 312.646 212.801 L 312.646 212.801 Q 312.236 212.615 311.958 212.225 L 311.958 212.225 L 311.958 212.225 Q 311.68 211.834 311.68 211.316 L 311.68 211.316 L 311.68 211.316 Q 311.68 210.73 311.992 210.291 L 311.992 210.291 L 311.992 210.291 Q 312.305 209.852 312.979 209.441 L 312.979 209.441 L 312.979 209.441 Q 312.148 209.1 311.626 208.279 L 311.626 208.279 L 311.626 208.279 Q 311.104 207.459 311.104 206.404 L 311.104 206.404 L 311.104 206.404 Q 311.104 204.646 312.158 203.694 L 312.158 203.694 L 312.158 203.694 Q 313.213 202.742 315.146 202.742 L 315.146 202.742 L 315.146 202.742 Q 315.986 202.742 316.66 202.938 L 316.66 202.938 Z  M 311.826 215.438 L 311.826 215.438 L 311.826 215.438 Q 311.826 216.307 312.559 216.756 L 312.559 216.756 L 312.559 216.756 Q 313.291 217.205 314.658 217.205 L 314.658 217.205 L 314.658 217.205 Q 316.699 217.205 317.681 216.595 L 317.681 216.595 L 317.681 216.595 Q 318.662 215.984 318.662 214.939 L 318.662 214.939 L 318.662 214.939 Q 318.662 214.07 318.125 213.733 L 318.125 213.733 L 318.125 213.733 Q 317.588 213.396 316.104 213.396 L 316.104 213.396 L 314.16 213.396 L 314.16 213.396 Q 313.057 213.396 312.441 213.924 L 312.441 213.924 L 312.441 213.924 Q 311.826 214.451 311.826 215.438 Z  M 312.705 206.365 L 312.705 206.365 L 312.705 206.365 Q 312.705 207.488 313.34 208.064 L 313.34 208.064 L 313.34 208.064 Q 313.975 208.641 315.107 208.641 L 315.107 208.641 L 315.107 208.641 Q 317.48 208.641 317.48 206.336 L 317.48 206.336 L 317.48 206.336 Q 317.48 203.924 315.078 203.924 L 315.078 203.924 L 315.078 203.924 Q 313.936 203.924 313.32 204.539 L 313.32 204.539 L 313.32 204.539 Q 312.705 205.154 312.705 206.365 Z " fill-rule="evenodd" fill="rgb(255,255,255)"/><path d=" M 95.359 291.102 L 95.359 291.102 L 95.359 291.102 Q 95.359 294.637 93.44 296.507 L 93.44 296.507 L 93.44 296.507 Q 91.521 298.377 87.918 298.377 L 87.918 298.377 L 83.963 298.377 L 83.963 284.1 L 88.338 284.1 L 88.338 284.1 Q 91.668 284.1 93.514 285.945 L 93.514 285.945 L 93.514 285.945 Q 95.359 287.791 95.359 291.102 Z  M 93.602 291.16 L 93.602 291.16 L 93.602 291.16 Q 93.602 288.367 92.2 286.951 L 92.2 286.951 L 92.2 286.951 Q 90.799 285.535 88.035 285.535 L 88.035 285.535 L 85.623 285.535 L 85.623 296.941 L 87.645 296.941 L 87.645 296.941 Q 90.613 296.941 92.107 295.481 L 92.107 295.481 L 92.107 295.481 Q 93.602 294.021 93.602 291.16 Z  M 106.082 298.377 L 104.881 298.377 L 104.559 296.854 L 104.48 296.854 L 104.48 296.854 Q 103.68 297.859 102.884 298.216 L 102.884 298.216 L 102.884 298.216 Q 102.088 298.572 100.896 298.572 L 100.896 298.572 L 100.896 298.572 Q 99.305 298.572 98.401 297.752 L 98.401 297.752 L 98.401 297.752 Q 97.498 296.932 97.498 295.418 L 97.498 295.418 L 97.498 295.418 Q 97.498 292.176 102.684 292.02 L 102.684 292.02 L 104.5 291.961 L 104.5 291.297 L 104.5 291.297 Q 104.5 290.037 103.958 289.437 L 103.958 289.437 L 103.958 289.437 Q 103.416 288.836 102.225 288.836 L 102.225 288.836 L 102.225 288.836 Q 100.887 288.836 99.197 289.656 L 99.197 289.656 L 98.699 288.416 L 98.699 288.416 Q 99.49 287.986 100.433 287.742 L 100.433 287.742 L 100.433 287.742 Q 101.375 287.498 102.322 287.498 L 102.322 287.498 L 102.322 287.498 Q 104.236 287.498 105.159 288.348 L 105.159 288.348 L 105.159 288.348 Q 106.082 289.197 106.082 291.072 L 106.082 291.072 L 106.082 298.377 Z  M 101.219 297.234 L 101.219 297.234 L 101.219 297.234 Q 102.732 297.234 103.597 296.404 L 103.597 296.404 L 103.597 296.404 Q 104.461 295.574 104.461 294.08 L 104.461 294.08 L 104.461 293.113 L 102.84 293.182 L 102.84 293.182 Q 100.906 293.25 100.052 293.782 L 100.052 293.782 L 100.052 293.782 Q 99.197 294.314 99.197 295.438 L 99.197 295.438 L 99.197 295.438 Q 99.197 296.316 99.729 296.775 L 99.729 296.775 L 99.729 296.775 Q 100.262 297.234 101.219 297.234 Z  M 112.879 297.234 L 112.879 297.234 L 112.879 297.234 Q 113.309 297.234 113.709 297.171 L 113.709 297.171 L 113.709 297.171 Q 114.109 297.107 114.344 297.039 L 114.344 297.039 L 114.344 298.279 L 114.344 298.279 Q 114.08 298.406 113.567 298.489 L 113.567 298.489 L 113.567 298.489 Q 113.055 298.572 112.645 298.572 L 112.645 298.572 L 112.645 298.572 Q 109.539 298.572 109.539 295.301 L 109.539 295.301 L 109.539 288.934 L 108.006 288.934 L 108.006 288.152 L 109.539 287.479 L 110.223 285.193 L 111.16 285.193 L 111.16 287.674 L 114.266 287.674 L 114.266 288.934 L 111.16 288.934 L 111.16 295.232 L 111.16 295.232 Q 111.16 296.199 111.619 296.717 L 111.619 296.717 L 111.619 296.717 Q 112.078 297.234 112.879 297.234 Z  M 124.266 298.377 L 123.064 298.377 L 122.742 296.854 L 122.664 296.854 L 122.664 296.854 Q 121.863 297.859 121.067 298.216 L 121.067 298.216 L 121.067 298.216 Q 120.271 298.572 119.08 298.572 L 119.08 298.572 L 119.08 298.572 Q 117.488 298.572 116.585 297.752 L 116.585 297.752 L 116.585 297.752 Q 115.682 296.932 115.682 295.418 L 115.682 295.418 L 115.682 295.418 Q 115.682 292.176 120.867 292.02 L 120.867 292.02 L 122.684 291.961 L 122.684 291.297 L 122.684 291.297 Q 122.684 290.037 122.142 289.437 L 122.142 289.437 L 122.142 289.437 Q 121.6 288.836 120.408 288.836 L 120.408 288.836 L 120.408 288.836 Q 119.07 288.836 117.381 289.656 L 117.381 289.656 L 116.883 288.416 L 116.883 288.416 Q 117.674 287.986 118.616 287.742 L 118.616 287.742 L 118.616 287.742 Q 119.559 287.498 120.506 287.498 L 120.506 287.498 L 120.506 287.498 Q 122.42 287.498 123.343 288.348 L 123.343 288.348 L 123.343 288.348 Q 124.266 289.197 124.266 291.072 L 124.266 291.072 L 124.266 298.377 Z  M 119.402 297.234 L 119.402 297.234 L 119.402 297.234 Q 120.916 297.234 121.78 296.404 L 121.78 296.404 L 121.78 296.404 Q 122.645 295.574 122.645 294.08 L 122.645 294.08 L 122.645 293.113 L 121.023 293.182 L 121.023 293.182 Q 119.09 293.25 118.235 293.782 L 118.235 293.782 L 118.235 293.782 Q 117.381 294.314 117.381 295.438 L 117.381 295.438 L 117.381 295.438 Q 117.381 296.316 117.913 296.775 L 117.913 296.775 L 117.913 296.775 Q 118.445 297.234 119.402 297.234 Z " fill-rule="evenodd" fill="rgb(255,255,255)"/><path d=" M 105.803 95.1 L 105.803 109.377 L 104.143 109.377 L 104.143 102.658 L 96.623 102.658 L 96.623 109.377 L 94.963 109.377 L 94.963 95.1 L 96.623 95.1 L 96.623 101.174 L 104.143 101.174 L 104.143 95.1 L 105.803 95.1 Z  M 114.113 96.574 L 114.113 109.377 L 112.453 109.377 L 112.453 96.574 L 107.932 96.574 L 107.932 95.1 L 118.635 95.1 L 118.635 96.574 L 114.113 96.574 Z  M 128.439 109.377 L 127.102 109.377 L 122.258 96.721 L 122.18 96.721 L 122.18 96.721 Q 122.316 98.225 122.316 100.295 L 122.316 100.295 L 122.316 109.377 L 120.783 109.377 L 120.783 95.1 L 123.283 95.1 L 127.805 106.877 L 127.883 106.877 L 132.443 95.1 L 134.924 95.1 L 134.924 109.377 L 133.264 109.377 L 133.264 100.178 L 133.264 100.178 Q 133.264 98.596 133.4 96.74 L 133.4 96.74 L 133.322 96.74 L 128.439 109.377 Z  M 146.799 109.377 L 138.84 109.377 L 138.84 95.1 L 140.5 95.1 L 140.5 107.873 L 146.799 107.873 L 146.799 109.377 Z " fill-rule="evenodd" fill="rgb(255,255,255)"/></g></svg>