<?xml version="1.0" standalone="no"?><!-- Generator: Gravit.io --><svg xmlns="http://www.w3.org/2000/svg" xmlns:xlink="http://www.w3.org/1999/xlink" style="isolation:isolate" viewBox="0 0 660 480" width="660" height="480"><defs><clipPath id="_clipPath_hQHwxkJNlJmvxhFGr6G05tEn8BVQwgP5"><rect width="660" height="480"/></clipPath></defs><g clip-path="url(#_clipPath_hQHwxkJNlJmvxhFGr6G05tEn8BVQwgP5)"><path d=" M 316.497 321.708 L 316.497 324.583 L 307.041 324.583 L 307.041 308.165 L 316.497 308.165 L 316.497 311.017 L 310.522 311.017 L 310.522 314.622 L 316.082 314.622 L 316.082 317.475 L 310.522 317.475 L 310.522 321.708 L 316.497 321.708 Z  M 317.968 324.583 L 322.225 318.171 L 318.182 312.028 L 322.067 312.028 L 324.504 316.026 L 326.964 312.028 L 330.85 312.028 L 326.762 318.171 L 331.041 324.583 L 327.144 324.583 L 324.504 320.282 L 321.854 324.583 L 317.968 324.583 Z  M 332.804 308.782 L 332.804 308.782 L 332.804 308.782 Q 332.804 307.109 334.668 307.109 L 334.668 307.109 L 334.668 307.109 Q 336.532 307.109 336.532 308.782 L 336.532 308.782 L 336.532 308.782 Q 336.532 309.58 336.066 310.023 L 336.066 310.023 L 336.066 310.023 Q 335.6 310.467 334.668 310.467 L 334.668 310.467 L 334.668 310.467 Q 332.804 310.467 332.804 308.782 Z  M 336.375 312.028 L 336.375 324.583 L 332.95 324.583 L 332.95 312.028 L 336.375 312.028 Z  M 345.258 322.079 L 345.258 322.079 L 345.258 322.079 Q 346.157 322.079 347.415 321.686 L 347.415 321.686 L 347.415 324.235 L 347.415 324.235 Q 346.134 324.808 344.27 324.808 L 344.27 324.808 L 344.27 324.808 Q 342.215 324.808 341.277 323.769 L 341.277 323.769 L 341.277 323.769 Q 340.339 322.73 340.339 320.653 L 340.339 320.653 L 340.339 314.6 L 338.7 314.6 L 338.7 313.151 L 340.586 312.005 L 341.575 309.355 L 343.765 309.355 L 343.765 312.028 L 347.28 312.028 L 347.28 314.6 L 343.765 314.6 L 343.765 320.653 L 343.765 320.653 Q 343.765 321.383 344.175 321.731 L 344.175 321.731 L 344.175 321.731 Q 344.584 322.079 345.258 322.079 Z " fill-rule="evenodd" fill="rgb(210,210,48)"/><rect x="78" y="80.618" width="307" height="93.382" transform="matrix(1,0,0,1,0,0)" fill="rgb(100,100,100)" fill-opacity="0.88"/><path d=" M 235.2 256.84 L 235.2 256.84 L 235.2 256.84 Q 235.2 255.66 235.57 254.71 L 235.57 254.71 L 235.57 254.71 Q 235.94 253.76 236.55 253.1 L 236.55 253.1 L 236.55 253.1 Q 237.16 252.44 237.96 252.08 L 237.96 252.08 L 237.96 252.08 Q 238.76 251.72 239.62 251.72 L 239.62 251.72 L 239.62 251.72 Q 240.52 251.72 241.2 252.06 L 241.2 252.06 L 241.2 252.06 Q 241.88 252.4 242.56 252.98 L 242.56 252.98 L 242.5 251.18 L 242.5 247.44 L 244.14 247.44 L 244.14 261.68 L 242.78 261.68 L 242.64 260.4 L 242.58 260.4 L 242.58 260.4 Q 241.98 261.02 241.15 261.47 L 241.15 261.47 L 241.15 261.47 Q 240.32 261.92 239.42 261.92 L 239.42 261.92 L 239.42 261.92 Q 238.46 261.92 237.69 261.58 L 237.69 261.58 L 237.69 261.58 Q 236.92 261.24 236.36 260.59 L 236.36 260.59 L 236.36 260.59 Q 235.8 259.94 235.5 259 L 235.5 259 L 235.5 259 Q 235.2 258.06 235.2 256.84 Z  M 236.9 256.82 L 236.9 256.82 L 236.9 256.82 Q 236.9 258.58 237.65 259.56 L 237.65 259.56 L 237.65 259.56 Q 238.4 260.54 239.76 260.54 L 239.76 260.54 L 239.76 260.54 Q 241.2 260.54 242.5 259.08 L 242.5 259.08 L 242.5 254.24 L 242.5 254.24 Q 241.84 253.62 241.21 253.36 L 241.21 253.36 L 241.21 253.36 Q 240.58 253.1 239.94 253.1 L 239.94 253.1 L 239.94 253.1 Q 239.3 253.1 238.75 253.37 L 238.75 253.37 L 238.75 253.37 Q 238.2 253.64 237.79 254.13 L 237.79 254.13 L 237.79 254.13 Q 237.38 254.62 237.14 255.3 L 237.14 255.3 L 237.14 255.3 Q 236.9 255.98 236.9 256.82 Z  M 253.22 260.32 L 256.56 260.32 L 256.56 261.68 L 247.96 261.68 L 247.96 260.32 L 251.58 260.32 L 251.58 250.92 L 248.86 250.92 L 248.86 249.86 L 248.86 249.86 Q 249.88 249.7 250.64 249.47 L 250.64 249.47 L 250.64 249.47 Q 251.4 249.24 252 248.92 L 252 248.92 L 253.22 248.92 L 253.22 260.32 Z  M 264.42 260.62 L 264.42 260.62 L 264.42 260.62 Q 264.98 260.62 265.48 260.42 L 265.48 260.42 L 265.48 260.42 Q 265.98 260.22 266.34 259.85 L 266.34 259.85 L 266.34 259.85 Q 266.7 259.48 266.91 258.97 L 266.91 258.97 L 266.91 258.97 Q 267.12 258.46 267.12 257.82 L 267.12 257.82 L 267.12 257.82 Q 267.12 256.5 266.42 255.81 L 266.42 255.81 L 266.42 255.81 Q 265.72 255.12 264.4 255.12 L 264.4 255.12 L 264.4 255.12 Q 263.64 255.12 262.8 255.51 L 262.8 255.51 L 262.8 255.51 Q 261.96 255.9 261.14 256.84 L 261.14 256.84 L 261.14 256.84 Q 261.32 258.7 262.17 259.66 L 262.17 259.66 L 262.17 259.66 Q 263.02 260.62 264.42 260.62 Z  M 268.44 250.04 L 267.52 251.06 L 267.52 251.06 Q 267.02 250.6 266.36 250.33 L 266.36 250.33 L 266.36 250.33 Q 265.7 250.06 264.98 250.06 L 264.98 250.06 L 264.98 250.06 Q 264.22 250.06 263.52 250.34 L 263.52 250.34 L 263.52 250.34 Q 262.82 250.62 262.29 251.26 L 262.29 251.26 L 262.29 251.26 Q 261.76 251.9 261.43 252.95 L 261.43 252.95 L 261.43 252.95 Q 261.1 254 261.08 255.54 L 261.08 255.54 L 261.08 255.54 Q 261.84 254.78 262.79 254.33 L 262.79 254.33 L 262.79 254.33 Q 263.74 253.88 264.7 253.88 L 264.7 253.88 L 264.7 253.88 Q 265.58 253.88 266.31 254.13 L 266.31 254.13 L 266.31 254.13 Q 267.04 254.38 267.57 254.87 L 267.57 254.87 L 267.57 254.87 Q 268.1 255.36 268.39 256.1 L 268.39 256.1 L 268.39 256.1 Q 268.68 256.84 268.68 257.82 L 268.68 257.82 L 268.68 257.82 Q 268.68 258.74 268.33 259.49 L 268.33 259.49 L 268.33 259.49 Q 267.98 260.24 267.4 260.78 L 267.4 260.78 L 267.4 260.78 Q 266.82 261.32 266.05 261.62 L 266.05 261.62 L 266.05 261.62 Q 265.28 261.92 264.42 261.92 L 264.42 261.92 L 264.42 261.92 Q 263.38 261.92 262.49 261.54 L 262.49 261.54 L 262.49 261.54 Q 261.6 261.16 260.94 260.39 L 260.94 260.39 L 260.94 260.39 Q 260.28 259.62 259.91 258.47 L 259.91 258.47 L 259.91 258.47 Q 259.54 257.32 259.54 255.78 L 259.54 255.78 L 259.54 255.78 Q 259.54 253.86 259.98 252.51 L 259.98 252.51 L 259.98 252.51 Q 260.42 251.16 261.16 250.31 L 261.16 250.31 L 261.16 250.31 Q 261.9 249.46 262.87 249.07 L 262.87 249.07 L 262.87 249.07 Q 263.84 248.68 264.88 248.68 L 264.88 248.68 L 264.88 248.68 Q 266.06 248.68 266.93 249.07 L 266.93 249.07 L 266.93 249.07 Q 267.8 249.46 268.44 250.04 L 268.44 250.04 Z  M 271.98 263.76 L 276.18 263.76 L 276.18 248.48 L 271.98 248.48 L 271.98 247.52 L 277.5 247.52 L 277.5 264.72 L 271.98 264.72 L 271.98 263.76 Z  M 163.2 256.84 L 163.2 256.84 L 163.2 256.84 Q 163.2 255.66 163.57 254.71 L 163.57 254.71 L 163.57 254.71 Q 163.94 253.76 164.55 253.1 L 164.55 253.1 L 164.55 253.1 Q 165.16 252.44 165.96 252.08 L 165.96 252.08 L 165.96 252.08 Q 166.76 251.72 167.62 251.72 L 167.62 251.72 L 167.62 251.72 Q 168.52 251.72 169.2 252.06 L 169.2 252.06 L 169.2 252.06 Q 169.88 252.4 170.56 252.98 L 170.56 252.98 L 170.5 251.18 L 170.5 247.44 L 172.14 247.44 L 172.14 261.68 L 170.78 261.68 L 170.64 260.4 L 170.58 260.4 L 170.58 260.4 Q 169.98 261.02 169.15 261.47 L 169.15 261.47 L 169.15 261.47 Q 168.32 261.92 167.42 261.92 L 167.42 261.92 L 167.42 261.92 Q 166.46 261.92 165.69 261.58 L 165.69 261.58 L 165.69 261.58 Q 164.92 261.24 164.36 260.59 L 164.36 260.59 L 164.36 260.59 Q 163.8 259.94 163.5 259 L 163.5 259 L 163.5 259 Q 163.2 258.06 163.2 256.84 Z  M 164.9 256.82 L 164.9 256.82 L 164.9 256.82 Q 164.9 258.58 165.65 259.56 L 165.65 259.56 L 165.65 259.56 Q 166.4 260.54 167.76 260.54 L 167.76 260.54 L 167.76 260.54 Q 169.2 260.54 170.5 259.08 L 170.5 259.08 L 170.5 254.24 L 170.5 254.24 Q 169.84 253.62 169.21 253.36 L 169.21 253.36 L 169.21 253.36 Q 168.58 253.1 167.94 253.1 L 167.94 253.1 L 167.94 253.1 Q 167.3 253.1 166.75 253.37 L 166.75 253.37 L 166.75 253.37 Q 166.2 253.64 165.79 254.13 L 165.79 254.13 L 165.79 254.13 Q 165.38 254.62 165.14 255.3 L 165.14 255.3 L 165.14 255.3 Q 164.9 255.98 164.9 256.82 Z  M 181.22 260.32 L 184.56 260.32 L 184.56 261.68 L 175.96 261.68 L 175.96 260.32 L 179.58 260.32 L 179.58 250.92 L 176.86 250.92 L 176.86 249.86 L 176.86 249.86 Q 177.88 249.7 178.64 249.47 L 178.64 249.47 L 178.64 249.47 Q 179.4 249.24 180 248.92 L 180 248.92 L 181.22 248.92 L 181.22 260.32 Z  M 187.12 260.18 L 187.94 259.1 L 187.94 259.1 Q 188.26 259.38 188.62 259.65 L 188.62 259.65 L 188.62 259.65 Q 188.98 259.92 189.41 260.12 L 189.41 260.12 L 189.41 260.12 Q 189.84 260.32 190.37 260.44 L 190.37 260.44 L 190.37 260.44 Q 190.9 260.56 191.54 260.56 L 191.54 260.56 L 191.54 260.56 Q 192.22 260.56 192.81 260.35 L 192.81 260.35 L 192.81 260.35 Q 193.4 260.14 193.84 259.76 L 193.84 259.76 L 193.84 259.76 Q 194.28 259.38 194.53 258.84 L 194.53 258.84 L 194.53 258.84 Q 194.78 258.3 194.78 257.64 L 194.78 257.64 L 194.78 257.64 Q 194.78 256.32 193.93 255.58 L 193.93 255.58 L 193.93 255.58 Q 193.08 254.84 191.64 254.84 L 191.64 254.84 L 191.64 254.84 Q 190.84 254.84 190.28 255.04 L 190.28 255.04 L 190.28 255.04 Q 189.72 255.24 189.04 255.62 L 189.04 255.62 L 188.16 255.06 L 188.58 248.92 L 195.8 248.92 L 195.8 250.34 L 190.04 250.34 L 189.7 254.12 L 189.7 254.12 Q 190.26 253.88 190.79 253.74 L 190.79 253.74 L 190.79 253.74 Q 191.32 253.6 192.06 253.6 L 192.06 253.6 L 192.06 253.6 Q 192.98 253.6 193.78 253.84 L 193.78 253.84 L 193.78 253.84 Q 194.58 254.08 195.17 254.57 L 195.17 254.57 L 195.17 254.57 Q 195.76 255.06 196.1 255.81 L 196.1 255.81 L 196.1 255.81 Q 196.44 256.56 196.44 257.6 L 196.44 257.6 L 196.44 257.6 Q 196.44 258.64 196.05 259.44 L 196.05 259.44 L 196.05 259.44 Q 195.66 260.24 195 260.79 L 195 260.79 L 195 260.79 Q 194.34 261.34 193.49 261.63 L 193.49 261.63 L 193.49 261.63 Q 192.64 261.92 191.72 261.92 L 191.72 261.92 L 191.72 261.92 Q 190.86 261.92 190.17 261.77 L 190.17 261.77 L 190.17 261.77 Q 189.48 261.62 188.93 261.38 L 188.93 261.38 L 188.93 261.38 Q 188.38 261.14 187.93 260.83 L 187.93 260.83 L 187.93 260.83 Q 187.48 260.52 187.12 260.18 L 187.12 260.18 Z  M 202.4 265.94 L 201.94 264.9 L 201.94 264.9 Q 203.18 264.34 203.8 263.55 L 203.8 263.55 L 203.8 263.55 Q 204.42 262.76 204.46 261.56 L 204.46 261.56 L 204.46 261.56 Q 204.36 261.58 204.27 261.59 L 204.27 261.59 L 204.27 261.59 Q 204.18 261.6 204.08 261.6 L 204.08 261.6 L 204.08 261.6 Q 203.44 261.6 202.98 261.23 L 202.98 261.23 L 202.98 261.23 Q 202.52 260.86 202.52 260.1 L 202.52 260.1 L 202.52 260.1 Q 202.52 259.36 203 258.97 L 203 258.97 L 203 258.97 Q 203.48 258.58 204.12 258.58 L 204.12 258.58 L 204.12 258.58 Q 205.02 258.58 205.47 259.27 L 205.47 259.27 L 205.47 259.27 Q 205.92 259.96 205.92 261.14 L 205.92 261.14 L 205.92 261.14 Q 205.92 262.9 204.99 264.11 L 204.99 264.11 L 204.99 264.11 Q 204.06 265.32 202.4 265.94 L 202.4 265.94 Z  M 82.52 264.72 L 82.52 247.52 L 88.04 247.52 L 88.04 248.48 L 83.82 248.48 L 83.82 263.76 L 88.04 263.76 L 88.04 264.72 L 82.52 264.72 Z  M 91.2 256.84 L 91.2 256.84 L 91.2 256.84 Q 91.2 255.66 91.57 254.71 L 91.57 254.71 L 91.57 254.71 Q 91.94 253.76 92.55 253.1 L 92.55 253.1 L 92.55 253.1 Q 93.16 252.44 93.96 252.08 L 93.96 252.08 L 93.96 252.08 Q 94.76 251.72 95.62 251.72 L 95.62 251.72 L 95.62 251.72 Q 96.52 251.72 97.2 252.06 L 97.2 252.06 L 97.2 252.06 Q 97.88 252.4 98.56 252.98 L 98.56 252.98 L 98.5 251.18 L 98.5 247.44 L 100.14 247.44 L 100.14 261.68 L 98.78 261.68 L 98.64 260.4 L 98.58 260.4 L 98.58 260.4 Q 97.98 261.02 97.15 261.47 L 97.15 261.47 L 97.15 261.47 Q 96.32 261.92 95.42 261.92 L 95.42 261.92 L 95.42 261.92 Q 94.46 261.92 93.69 261.58 L 93.69 261.58 L 93.69 261.58 Q 92.92 261.24 92.36 260.59 L 92.36 260.59 L 92.36 260.59 Q 91.8 259.94 91.5 259 L 91.5 259 L 91.5 259 Q 91.2 258.06 91.2 256.84 Z  M 92.9 256.82 L 92.9 256.82 L 92.9 256.82 Q 92.9 258.58 93.65 259.56 L 93.65 259.56 L 93.65 259.56 Q 94.4 260.54 95.76 260.54 L 95.76 260.54 L 95.76 260.54 Q 97.2 260.54 98.5 259.08 L 98.5 259.08 L 98.5 254.24 L 98.5 254.24 Q 97.84 253.62 97.21 253.36 L 97.21 253.36 L 97.21 253.36 Q 96.58 253.1 95.94 253.1 L 95.94 253.1 L 95.94 253.1 Q 95.3 253.1 94.75 253.37 L 94.75 253.37 L 94.75 253.37 Q 94.2 253.64 93.79 254.13 L 93.79 254.13 L 93.79 254.13 Q 93.38 254.62 93.14 255.3 L 93.14 255.3 L 93.14 255.3 Q 92.9 255.98 92.9 256.82 Z  M 109.22 260.32 L 112.56 260.32 L 112.56 261.68 L 103.96 261.68 L 103.96 260.32 L 107.58 260.32 L 107.58 250.92 L 104.86 250.92 L 104.86 249.86 L 104.86 249.86 Q 105.88 249.7 106.64 249.47 L 106.64 249.47 L 106.64 249.47 Q 107.4 249.24 108 248.92 L 108 248.92 L 109.22 248.92 L 109.22 260.32 Z  M 116.6 256.84 L 121.36 256.84 L 121.36 252.88 L 121.36 252.88 Q 121.38 252.36 121.4 251.75 L 121.4 251.75 L 121.4 251.75 Q 121.42 251.14 121.46 250.62 L 121.46 250.62 L 121.36 250.62 L 121.36 250.62 Q 121.06 251.08 120.72 251.55 L 120.72 251.55 L 120.72 251.55 Q 120.38 252.02 120.06 252.48 L 120.06 252.48 L 116.6 256.84 Z  M 124.9 256.84 L 124.9 258.16 L 122.92 258.16 L 122.92 261.68 L 121.36 261.68 L 121.36 258.16 L 114.78 258.16 L 114.78 257.06 L 121.16 248.92 L 122.92 248.92 L 122.92 256.84 L 124.9 256.84 Z  M 130.4 265.94 L 129.94 264.9 L 129.94 264.9 Q 131.18 264.34 131.8 263.55 L 131.8 263.55 L 131.8 263.55 Q 132.42 262.76 132.46 261.56 L 132.46 261.56 L 132.46 261.56 Q 132.36 261.58 132.27 261.59 L 132.27 261.59 L 132.27 261.59 Q 132.18 261.6 132.08 261.6 L 132.08 261.6 L 132.08 261.6 Q 131.44 261.6 130.98 261.23 L 130.98 261.23 L 130.98 261.23 Q 130.52 260.86 130.52 260.1 L 130.52 260.1 L 130.52 260.1 Q 130.52 259.36 131 258.97 L 131 258.97 L 131 258.97 Q 131.48 258.58 132.12 258.58 L 132.12 258.58 L 132.12 258.58 Q 133.02 258.58 133.47 259.27 L 133.47 259.27 L 133.47 259.27 Q 133.92 259.96 133.92 261.14 L 133.92 261.14 L 133.92 261.14 Q 133.92 262.9 132.99 264.11 L 132.99 264.11 L 132.99 264.11 Q 132.06 265.32 130.4 265.94 L 130.4 265.94 Z " fill-rule="evenodd" fill="rgb(255,255,255)"/><path d=" M 93 142.5 C 93 133.669 100.169 126.5 109 126.5 C 117.831 126.5 125 133.669 125 142.5 C 125 151.331 117.831 158.5 109 158.5 C 100.169 158.5 93 151.331 93 142.5 Z " fill="rgb(235,235,235)"/><path d=" M 153.5 142.5 C 153.5 133.669 160.669 126.5 169.5 126.5 C 178.331 126.5 185.5 133.669 185.5 142.5 C 185.5 151.331 178.331 158.5 169.5 158.5 C 160.669 158.5 153.5 151.331 153.5 142.5 Z " fill="rgb(235,235,235)"/><path d=" M 214 142.5 C 214 133.669 221.169 126.5 230 126.5 C 238.831 126.5 246 133.669 246 142.5 C 246 151.331 238.831 158.5 230 158.5 C 221.169 158.5 214 151.331 214 142.5 Z " fill="rgb(235,235,235)"/><path d=" M 274.5 142.5 C 274.5 133.669 281.669 126.5 290.5 126.5 C 299.331 126.5 306.5 133.669 306.5 142.5 C 306.5 151.331 299.331 158.5 290.5 158.5 C 281.669 158.5 274.5 151.331 274.5 142.5 Z " fill="rgb(210,210,48)"/><path d=" M 335 142.5 C 335 133.669 342.169 126.5 351 126.5 C 359.831 126.5 367 133.669 367 142.5 C 367 151.331 359.831 158.5 351 158.5 C 342.169 158.5 335 151.331 335 142.5 Z " fill="rgb(210,210,48)"/><line x1="229" y1="195" x2="229" y2="230" vector-effect="non-scaling-stroke" stroke-width="3" stroke="rgb(235,235,235)" stroke-linejoin="miter" stroke-linecap="round" stroke-miterlimit="3"/><path d=" M 237.66 203.485 L 229 186.165 L 220.34 203.485 L 229 196.557 L 237.66 203.485 Z " fill="rgb(235,235,235)" stroke="none"/><path d=" M 251.963 213.641 L 251.963 199.363 L 255.996 199.363 L 255.996 199.363 Q 258.838 199.363 260.107 200.213 L 260.107 200.213 L 260.107 200.213 Q 261.377 201.063 261.377 202.898 L 261.377 202.898 L 261.377 202.898 Q 261.377 204.168 260.669 204.993 L 260.669 204.993 L 260.669 204.993 Q 259.961 205.818 258.604 206.063 L 258.604 206.063 L 258.604 206.16 L 258.604 206.16 Q 261.855 206.717 261.855 209.578 L 261.855 209.578 L 261.855 209.578 Q 261.855 211.492 260.562 212.566 L 260.562 212.566 L 260.562 212.566 Q 259.268 213.641 256.943 213.641 L 256.943 213.641 L 251.963 213.641 Z  M 253.623 200.799 L 253.623 205.477 L 256.357 205.477 L 256.357 205.477 Q 258.115 205.477 258.887 204.925 L 258.887 204.925 L 258.887 204.925 Q 259.658 204.373 259.658 203.064 L 259.658 203.064 L 259.658 203.064 Q 259.658 201.863 258.799 201.331 L 258.799 201.331 L 258.799 201.331 Q 257.939 200.799 256.064 200.799 L 256.064 200.799 L 253.623 200.799 Z  M 256.465 206.883 L 253.623 206.883 L 253.623 212.225 L 256.602 212.225 L 256.602 212.225 Q 258.33 212.225 259.204 211.556 L 259.204 211.556 L 259.204 211.556 Q 260.078 210.887 260.078 209.461 L 260.078 209.461 L 260.078 209.461 Q 260.078 208.133 259.185 207.508 L 259.185 207.508 L 259.185 207.508 Q 258.291 206.883 256.465 206.883 L 256.465 206.883 Z  M 266.299 202.938 L 266.299 213.641 L 264.678 213.641 L 264.678 202.938 L 266.299 202.938 Z  M 264.541 200.037 L 264.541 200.037 L 264.541 200.037 Q 264.541 199.48 264.814 199.222 L 264.814 199.222 L 264.814 199.222 Q 265.088 198.963 265.498 198.963 L 265.498 198.963 L 265.498 198.963 Q 265.889 198.963 266.172 199.227 L 266.172 199.227 L 266.172 199.227 Q 266.455 199.49 266.455 200.037 L 266.455 200.037 L 266.455 200.037 Q 266.455 200.584 266.172 200.853 L 266.172 200.853 L 266.172 200.853 Q 265.889 201.121 265.498 201.121 L 265.498 201.121 L 265.498 201.121 Q 265.088 201.121 264.814 200.853 L 264.814 200.853 L 264.814 200.853 Q 264.541 200.584 264.541 200.037 Z  M 278.682 213.641 L 277.061 213.641 L 277.061 206.717 L 277.061 206.717 Q 277.061 205.408 276.465 204.764 L 276.465 204.764 L 276.465 204.764 Q 275.869 204.119 274.6 204.119 L 274.6 204.119 L 274.6 204.119 Q 272.92 204.119 272.139 205.027 L 272.139 205.027 L 272.139 205.027 Q 271.357 205.936 271.357 208.025 L 271.357 208.025 L 271.357 213.641 L 269.736 213.641 L 269.736 202.938 L 271.055 202.938 L 271.318 204.402 L 271.396 204.402 L 271.396 204.402 Q 271.895 203.611 272.793 203.177 L 272.793 203.177 L 272.793 203.177 Q 273.691 202.742 274.795 202.742 L 274.795 202.742 L 274.795 202.742 Q 276.729 202.742 277.705 203.675 L 277.705 203.675 L 277.705 203.675 Q 278.682 204.607 278.682 206.658 L 278.682 206.658 L 278.682 213.641 Z  M 289.512 213.641 L 289.297 212.205 L 289.209 212.205 L 289.209 212.205 Q 288.086 213.836 285.85 213.836 L 285.85 213.836 L 285.85 213.836 Q 283.75 213.836 282.583 212.4 L 282.583 212.4 L 282.583 212.4 Q 281.416 210.965 281.416 208.318 L 281.416 208.318 L 281.416 208.318 Q 281.416 205.672 282.588 204.207 L 282.588 204.207 L 282.588 204.207 Q 283.76 202.742 285.85 202.742 L 285.85 202.742 L 285.85 202.742 Q 288.027 202.742 289.189 204.324 L 289.189 204.324 L 289.316 204.324 L 289.248 203.553 L 289.209 202.801 L 289.209 198.445 L 290.83 198.445 L 290.83 213.641 L 289.512 213.641 Z  M 286.055 212.479 L 286.055 212.479 L 286.055 212.479 Q 287.715 212.479 288.462 211.575 L 288.462 211.575 L 288.462 211.575 Q 289.209 210.672 289.209 208.66 L 289.209 208.66 L 289.209 208.318 L 289.209 208.318 Q 289.209 206.043 288.452 205.071 L 288.452 205.071 L 288.452 205.071 Q 287.695 204.1 286.035 204.1 L 286.035 204.1 L 286.035 204.1 Q 284.609 204.1 283.853 205.208 L 283.853 205.208 L 283.853 205.208 Q 283.096 206.316 283.096 208.338 L 283.096 208.338 L 283.096 208.338 Q 283.096 210.389 283.848 211.434 L 283.848 211.434 L 283.848 211.434 Q 284.6 212.479 286.055 212.479 Z  M 295.889 202.938 L 295.889 213.641 L 294.268 213.641 L 294.268 202.938 L 295.889 202.938 Z  M 294.131 200.037 L 294.131 200.037 L 294.131 200.037 Q 294.131 199.48 294.404 199.222 L 294.404 199.222 L 294.404 199.222 Q 294.678 198.963 295.088 198.963 L 295.088 198.963 L 295.088 198.963 Q 295.479 198.963 295.762 199.227 L 295.762 199.227 L 295.762 199.227 Q 296.045 199.49 296.045 200.037 L 296.045 200.037 L 296.045 200.037 Q 296.045 200.584 295.762 200.853 L 295.762 200.853 L 295.762 200.853 Q 295.479 201.121 295.088 201.121 L 295.088 201.121 L 295.088 201.121 Q 294.678 201.121 294.404 200.853 L 294.404 200.853 L 294.404 200.853 Q 294.131 200.584 294.131 200.037 Z  M 308.271 213.641 L 306.65 213.641 L 306.65 206.717 L 306.65 206.717 Q 306.65 205.408 306.055 204.764 L 306.055 204.764 L 306.055 204.764 Q 305.459 204.119 304.189 204.119 L 304.189 204.119 L 304.189 204.119 Q 302.51 204.119 301.729 205.027 L 301.729 205.027 L 301.729 205.027 Q 300.947 205.936 300.947 208.025 L 300.947 208.025 L 300.947 213.641 L 299.326 213.641 L 299.326 202.938 L 300.645 202.938 L 300.908 204.402 L 300.986 204.402 L 300.986 204.402 Q 301.484 203.611 302.383 203.177 L 302.383 203.177 L 302.383 203.177 Q 303.281 202.742 304.385 202.742 L 304.385 202.742 L 304.385 202.742 Q 306.318 202.742 307.295 203.675 L 307.295 203.675 L 307.295 203.675 Q 308.271 204.607 308.271 206.658 L 308.271 206.658 L 308.271 213.641 Z  M 316.66 202.938 L 320.361 202.938 L 320.361 203.963 L 318.379 204.197 L 318.379 204.197 Q 318.652 204.539 318.867 205.091 L 318.867 205.091 L 318.867 205.091 Q 319.082 205.643 319.082 206.336 L 319.082 206.336 L 319.082 206.336 Q 319.082 207.908 318.008 208.846 L 318.008 208.846 L 318.008 208.846 Q 316.934 209.783 315.059 209.783 L 315.059 209.783 L 315.059 209.783 Q 314.58 209.783 314.16 209.705 L 314.16 209.705 L 314.16 209.705 Q 313.125 210.252 313.125 211.082 L 313.125 211.082 L 313.125 211.082 Q 313.125 211.521 313.486 211.731 L 313.486 211.731 L 313.486 211.731 Q 313.848 211.941 314.727 211.941 L 314.727 211.941 L 316.621 211.941 L 316.621 211.941 Q 318.359 211.941 319.292 212.674 L 319.292 212.674 L 319.292 212.674 Q 320.225 213.406 320.225 214.803 L 320.225 214.803 L 320.225 214.803 Q 320.225 216.58 318.799 217.513 L 318.799 217.513 L 318.799 217.513 Q 317.373 218.445 314.639 218.445 L 314.639 218.445 L 314.639 218.445 Q 312.539 218.445 311.401 217.664 L 311.401 217.664 L 311.401 217.664 Q 310.264 216.883 310.264 215.457 L 310.264 215.457 L 310.264 215.457 Q 310.264 214.48 310.889 213.768 L 310.889 213.768 L 310.889 213.768 Q 311.514 213.055 312.646 212.801 L 312.646 212.801 L 312.646 212.801 Q 312.236 212.615 311.958 212.225 L 311.958 212.225 L 311.958 212.225 Q 311.68 211.834 311.68 211.316 L 311.68 211.316 L 311.68 211.316 Q 311.68 210.73 311.992 210.291 L 311.992 210.291 L 311.992 210.291 Q 312.305 209.852 312.979 209.441 L 312.979 209.441 L 312.979 209.441 Q 312.148 209.1 311.626 208.279 L 311.626 208.279 L 311.626 208.279 Q 311.104 207.459 311.104 206.404 L 311.104 206.404 L 311.104 206.404 Q 311.104 204.646 312.158 203.694 L 312.158 203.694 L 312.158 203.694 Q 313.213 202.742 315.146 202.742 L 315.146 202.742 L 315.146 202.742 Q 315.986 202.742 316.66 202.938 L 316.66 202.938 Z  M 311.826 215.438 L 311.826 215.438 L 311.826 215.438 Q 311.826 216.307 312.559 216.756 L 312.559 216.756 L 312.559 216.756 Q 313.291 217.205 314.658 217.205 L 314.658 217.205 L 314.658 217.205 Q 316.699 217.205 317.681 216.595 L 317.681 216.595 L 317.681 216.595 Q 318.662 215.984 318.662 214.939 L 318.662 214.939 L 318.662 214.939 Q 318.662 214.07 318.125 213.733 L 318.125 213.733 L 318.125 213.733 Q 317.588 213.396 316.104 213.396 L 316.104 213.396 L 314.16 213.396 L 314.16 213.396 Q 313.057 213.396 312.441 213.924 L 312.441 213.924 L 312.441 213.924 Q 311.826 214.451 311.826 215.438 Z  M 312.705 206.365 L 312.705 206.365 L 312.705 206.365 Q 312.705 207.488 313.34 208.064 L 313.34 208.064 L 313.34 208.064 Q 313.975 208.641 315.107 208.641 L 315.107 208.641 L 315.107 208.641 Q 317.48 208.641 317.48 206.336 L 317.48 206.336 L 317.48 206.336 Q 317.48 203.924 315.078 203.924 L 315.078 203.924 L 315.078 203.924 Q 313.936 203.924 313.32 204.539 L 313.32 204.539 L 313.32 204.539 Q 312.705 205.154 312.705 206.365 Z " fill-rule="evenodd" fill="rgb(255,255,255)"/><path d=" M 95.359 291.102 L 95.359 291.102 L 95.359 291.102 Q 95.359 294.637 93.44 296.507 L 93.44 296.507 L 93.44 296.507 Q 91.521 298.377 87.918 298.377 L 87.918 298.377 L 83.963 298.377 L 83.963 284.1 L 88.338 284.1 L 88.338 284.1 Q 91.668 284.1 93.514 285.945 L 93.514 285.945 L 93.514 285.945 Q 95.359 287.791 95.359 291.102 Z  M 93.602 291.16 L 93.602 291.16 L 93.602 291.16 Q 93.602 288.367 92.2 286.951 L 92.2 286.951 L 92.2 286.951 Q 90.799 285.535 88.035 285.535 L 88.035 285.535 L 85.623 285.535 L 85.623 296.941 L 87.645 296.941 L 87.645 296.941 Q 90.613 296.941 92.107 295.481 L 92.107 295.481 L 92.107 295.481 Q 93.602 294.021 93.602 291.16 Z  M 106.082 298.377 L 104.881 298.377 L 104.559 296.854 L 104.48 296.854 L 104.48 296.854 Q 103.68 297.859 102.884 298.216 L 102.884 298.216 L 102.884 298.216 Q 102.088 298.572 100.896 298.572 L 100.896 298.572 L 100.896 298.572 Q 99.305 298.572 98.401 297.752 L 98.401 297.752 L 98.401 297.752 Q 97.498 296.932 97.498 295.418 L 97.498 295.418 L 97.498 295.418 Q 97.498 292.176 102.684 292.02 L 102.684 292.02 L 104.5 291.961 L 104.5 291.297 L 104.5 291.297 Q 104.5 290.037 103.958 289.437 L 103.958 289.437 L 103.958 289.437 Q 103.416 288.836 102.225 288.836 L 102.225 288.836 L 102.225 288.836 Q 100.887 288.836 99.197 289.656 L 99.197 289.656 L 98.699 288.416 L 98.699 288.416 Q 99.49 287.986 100.433 287.742 L 100.433 287.742 L 100.433 287.742 Q 101.375 287.498 102.322 287.498 L 102.322 287.498 L 102.322 287.498 Q 104.236 287.498 105.159 288.348 L 105.159 288.348 L 105.159 288.348 Q 106.082 289.197 106.082 291.072 L 106.082 291.072 L 106.082 298.377 Z  M 101.219 297.234 L 101.219 297.234 L 101.219 297.234 Q 102.732 297.234 103.597 296.404 L 103.597 296.404 L 103.597 296.404 Q 104.461 295.574 104.461 294.08 L 104.461 294.08 L 104.461 293.113 L 102.84 293.182 L 102.84 293.182 Q 100.906 293.25 100.052 293.782 L 100.052 293.782 L 100.052 293.782 Q 99.197 294.314 99.197 295.438 L 99.197 295.438 L 99.197 295.438 Q 99.197 296.316 99.729 296.775 L 99.729 296.775 L 99.729 296.775 Q 100.262 297.234 101.219 297.234 Z  M 112.879 297.234 L 112.879 297.234 L 112.879 297.234 Q 113.309 297.234 113.709 297.171 L 113.709 297.171 L 113.709 297.171 Q 114.109 297.107 114.344 297.039 L 114.344 297.039 L 114.344 298.279 L 114.344 298.279 Q 114.08 298.406 113.567 298.489 L 113.567 298.489 L 113.567 298.489 Q 113.055 298.572 112.645 298.572 L 112.645 298.572 L 112.645 298.572 Q 109.539 298.572 109.539 295.301 L 109.539 295.301 L 109.539 288.934 L 108.006 288.934 L 108.006 288.152 L 109.539 287.479 L 110.223 285.193 L 111.16 285.193 L 111.16 287.674 L 114.266 287.674 L 114.266 288.934 L 111.16 288.934 L 111.16 295.232 L 111.16 295.232 Q 111.16 296.199 111.619 296.717 L 111.619 296.717 L 111.619 296.717 Q 112.078 297.234 112.879 297.234 Z  M 124.266 298.377 L 123.064 298.377 L 122.742 296.854 L 122.664 296.854 L 122.664 296.854 Q 121.863 297.859 121.067 298.216 L 121.067 298.216 L 121.067 298.216 Q 120.271 298.572 119.08 298.572 L 119.08 298.572 L 119.08 298.572 Q 117.488 298.572 116.585 297.752 L 116.585 297.752 L 116.585 297.752 Q 115.682 296.932 115.682 295.418 L 115.682 295.418 L 115.682 295.418 Q 115.682 292.176 120.867 292.02 L 120.867 292.02 L 122.684 291.961 L 122.684 291.297 L 122.684 291.297 Q 122.684 290.037 122.142 289.437 L 122.142 289.437 L 122.142 289.437 Q 121.6 288.836 120.408 288.836 L 120.408 288.836 L 120.408 288.836 Q 119.07 288.836 117.381 289.656 L 117.381 289.656 L 116.883 288.416 L 116.883 288.416 Q 117.674 287.986 118.616 287.742 L 118.616 287.742 L 118.616 287.742 Q 119.559 287.498 120.506 287.498 L 120.506 287.498 L 120.506 287.498 Q 122.42 287.498 123.343 288.348 L 123.343 288.348 L 123.343 288.348 Q 124.266 289.197 124.266 291.072 L 124.266 291.072 L 124.266 298.377 Z  M 119.402 297.234 L 119.402 297.234 L 119.402 297.234 Q 120.916 297.234 121.78 296.404 L 121.78 296.404 L 121.78 296.404 Q 122.645 295.574 122.645 294.08 L 122.645 294.08 L 122.645 293.113 L 121.023 293.182 L 121.023 293.182 Q 119.09 293.25 118.235 293.782 L 118.235 293.782 L 118.235 293.782 Q 117.381 294.314 117.381 295.438 L 117.381 295.438 L 117.381 295.438 Q 117.381 296.316 117.913 296.775 L 117.913 296.775 L 117.913 296.775 Q 118.445 297.234 119.402 297.234 Z " fill-rule="evenodd" fill="rgb(255,255,255)"/><path d=" M 105.803 95.1 L 105.803 109.377 L 104.143 109.377 L 104.143 102.658 L 96.623 102.658 L 96.623 109.377 L 94.963 109.377 L 94.963 95.1 L 96.623 95.1 L 96.623 101.174 L 104.143 101.174 L 104.143 95.1 L 105.803 95.1 Z  M 114.113 96.574 L 114.113 109.377 L 112.453 109.377 L 112.453 96.574 L 107.932 96.574 L 107.932 95.1 L 118.635 95.1 L 118.635 96.574 L 114.113 96.574 Z  M 128.439 109.377 L 127.102 109.377 L 122.258 96.721 L 122.18 96.721 L 122.18 96.721 Q 122.316 98.225 122.316 100.295 L 122.316 100.295 L 122.316 109.377 L 120.783 109.377 L 120.783 95.1 L 123.283 95.1 L 127.805 106.877 L 127.883 106.877 L 132.443 95.1 L 134.924 95.1 L 134.924 109.377 L 133.264 109.377 L 133.264 100.178 L 133.264 100.178 Q 133.264 98.596 133.4 96.74 L 133.4 96.74 L 133.322 96.74 L 128.439 109.377 Z  M 146.799 109.377 L 138.84 109.377 L 138.84 95.1 L 140.5 95.1 L 140.5 107.873 L 146.799 107.873 L 146.799 109.377 Z " fill-rule="evenodd" fill="rgb(255,255,255)"/><path d=" M 282.666 398.582 L 282.666 398.582 L 282.666 398.582 Q 282.666 398.05 282.995 397.721 L 282.995 397.721 L 282.995 397.721 Q 283.324 397.392 283.8 397.392 L 283.8 397.392 L 283.8 397.392 Q 284.276 397.392 284.605 397.721 L 284.605 397.721 L 284.605 397.721 Q 284.934 398.05 284.934 398.582 L 284.934 398.582 L 284.934 398.582 Q 284.934 399.114 284.605 399.436 L 284.605 399.436 L 284.605 399.436 Q 284.276 399.758 283.8 399.758 L 283.8 399.758 L 283.8 399.758 Q 283.324 399.758 282.995 399.436 L 282.995 399.436 L 282.995 399.436 Q 282.666 399.114 282.666 398.582 Z  M 290.044 399.59 L 290.044 392.786 L 290.996 392.786 L 291.094 394.396 L 291.136 394.396 L 291.136 394.396 Q 291.668 393.57 292.445 393.094 L 292.445 393.094 L 292.445 393.094 Q 293.222 392.618 294.174 392.618 L 294.174 392.618 L 294.174 392.618 Q 294.552 392.618 294.874 392.681 L 294.874 392.681 L 294.874 392.681 Q 295.196 392.744 295.518 392.898 L 295.518 392.898 L 295.252 393.892 L 295.252 393.892 Q 294.888 393.766 294.643 393.71 L 294.643 393.71 L 294.643 393.71 Q 294.398 393.654 293.992 393.654 L 293.992 393.654 L 293.992 393.654 Q 293.222 393.654 292.515 394.095 L 292.515 394.095 L 292.515 394.095 Q 291.808 394.536 291.192 395.6 L 291.192 395.6 L 291.192 399.59 L 290.044 399.59 Z  M 297.366 396.202 L 297.366 396.202 L 297.366 396.202 Q 297.366 395.362 297.66 394.697 L 297.66 394.697 L 297.66 394.697 Q 297.954 394.032 298.437 393.57 L 298.437 393.57 L 298.437 393.57 Q 298.92 393.108 299.543 392.863 L 299.543 392.863 L 299.543 392.863 Q 300.166 392.618 300.824 392.618 L 300.824 392.618 L 300.824 392.618 Q 301.552 392.618 302.126 392.849 L 302.126 392.849 L 302.126 392.849 Q 302.7 393.08 303.099 393.5 L 303.099 393.5 L 303.099 393.5 Q 303.498 393.92 303.708 394.508 L 303.708 394.508 L 303.708 394.508 Q 303.918 395.096 303.918 395.81 L 303.918 395.81 L 303.918 395.81 Q 303.918 395.992 303.911 396.167 L 303.911 396.167 L 303.911 396.167 Q 303.904 396.342 303.876 396.468 L 303.876 396.468 L 298.556 396.468 L 298.556 396.468 Q 298.57 397.014 298.773 397.448 L 298.773 397.448 L 298.773 397.448 Q 298.976 397.882 299.319 398.19 L 299.319 398.19 L 299.319 398.19 Q 299.662 398.498 300.131 398.666 L 300.131 398.666 L 300.131 398.666 Q 300.6 398.834 301.16 398.834 L 301.16 398.834 L 301.16 398.834 Q 301.762 398.834 302.259 398.666 L 302.259 398.666 L 302.259 398.666 Q 302.756 398.498 303.232 398.204 L 303.232 398.204 L 303.638 398.96 L 303.638 398.96 Q 303.134 399.282 302.49 399.52 L 302.49 399.52 L 302.49 399.52 Q 301.846 399.758 301.02 399.758 L 301.02 399.758 L 301.02 399.758 Q 300.264 399.758 299.599 399.513 L 299.599 399.513 L 299.599 399.513 Q 298.934 399.268 298.437 398.813 L 298.437 398.813 L 298.437 398.813 Q 297.94 398.358 297.653 397.7 L 297.653 397.7 L 297.653 397.7 Q 297.366 397.042 297.366 396.202 Z  M 298.542 395.642 L 302.854 395.642 L 302.854 395.642 Q 302.854 394.62 302.322 394.074 L 302.322 394.074 L 302.322 394.074 Q 301.79 393.528 300.838 393.528 L 300.838 393.528 L 300.838 393.528 Q 300.418 393.528 300.033 393.668 L 300.033 393.668 L 300.033 393.668 Q 299.648 393.808 299.34 394.081 L 299.34 394.081 L 299.34 394.081 Q 299.032 394.354 298.822 394.746 L 298.822 394.746 L 298.822 394.746 Q 298.612 395.138 298.542 395.642 L 298.542 395.642 Z  M 305.64 399.59 L 305.64 392.786 L 306.536 392.786 L 306.634 393.682 L 306.676 393.682 L 306.676 393.682 Q 306.928 393.206 307.271 392.912 L 307.271 392.912 L 307.271 392.912 Q 307.614 392.618 308.202 392.618 L 308.202 392.618 L 308.202 392.618 Q 309.238 392.618 309.49 393.794 L 309.49 393.794 L 309.49 393.794 Q 309.798 393.262 310.162 392.94 L 310.162 392.94 L 310.162 392.94 Q 310.526 392.618 311.1 392.618 L 311.1 392.618 L 311.1 392.618 Q 311.814 392.618 312.199 393.157 L 312.199 393.157 L 312.199 393.157 Q 312.584 393.696 312.584 394.718 L 312.584 394.718 L 312.584 399.59 L 311.478 399.59 L 311.478 394.816 L 311.478 394.816 Q 311.478 393.612 310.736 393.612 L 310.736 393.612 L 310.736 393.612 Q 310.372 393.612 310.106 393.871 L 310.106 393.871 L 310.106 393.871 Q 309.84 394.13 309.574 394.662 L 309.574 394.662 L 309.574 399.59 L 308.65 399.59 L 308.65 394.816 L 308.65 394.816 Q 308.65 393.612 307.88 393.612 L 307.88 393.612 L 307.88 393.612 Q 307.516 393.612 307.264 393.871 L 307.264 393.871 L 307.264 393.871 Q 307.012 394.13 306.746 394.662 L 306.746 394.662 L 306.746 399.59 L 305.64 399.59 Z  M 314.04 396.202 L 314.04 396.202 L 314.04 396.202 Q 314.04 395.348 314.313 394.683 L 314.313 394.683 L 314.313 394.683 Q 314.586 394.018 315.048 393.556 L 315.048 393.556 L 315.048 393.556 Q 315.51 393.094 316.119 392.856 L 316.119 392.856 L 316.119 392.856 Q 316.728 392.618 317.4 392.618 L 317.4 392.618 L 317.4 392.618 Q 318.072 392.618 318.681 392.856 L 318.681 392.856 L 318.681 392.856 Q 319.29 393.094 319.752 393.556 L 319.752 393.556 L 319.752 393.556 Q 320.214 394.018 320.487 394.683 L 320.487 394.683 L 320.487 394.683 Q 320.76 395.348 320.76 396.202 L 320.76 396.202 L 320.76 396.202 Q 320.76 397.042 320.487 397.707 L 320.487 397.707 L 320.487 397.707 Q 320.214 398.372 319.752 398.827 L 319.752 398.827 L 319.752 398.827 Q 319.29 399.282 318.681 399.52 L 318.681 399.52 L 318.681 399.52 Q 318.072 399.758 317.4 399.758 L 317.4 399.758 L 317.4 399.758 Q 316.728 399.758 316.119 399.52 L 316.119 399.52 L 316.119 399.52 Q 315.51 399.282 315.048 398.827 L 315.048 398.827 L 315.048 398.827 Q 314.586 398.372 314.313 397.707 L 314.313 397.707 L 314.313 397.707 Q 314.04 397.042 314.04 396.202 Z  M 315.23 396.202 L 315.23 396.202 L 315.23 396.202 Q 315.23 396.79 315.384 397.266 L 315.384 397.266 L 315.384 397.266 Q 315.538 397.742 315.825 398.085 L 315.825 398.085 L 315.825 398.085 Q 316.112 398.428 316.511 398.617 L 316.511 398.617 L 316.511 398.617 Q 316.91 398.806 317.4 398.806 L 317.4 398.806 L 317.4 398.806 Q 317.89 398.806 318.289 398.617 L 318.289 398.617 L 318.289 398.617 Q 318.688 398.428 318.975 398.085 L 318.975 398.085 L 318.975 398.085 Q 319.262 397.742 319.416 397.266 L 319.416 397.266 L 319.416 397.266 Q 319.57 396.79 319.57 396.202 L 319.57 396.202 L 319.57 396.202 Q 319.57 395.614 319.416 395.131 L 319.416 395.131 L 319.416 395.131 Q 319.262 394.648 318.975 394.298 L 318.975 394.298 L 318.975 394.298 Q 318.688 393.948 318.289 393.759 L 318.289 393.759 L 318.289 393.759 Q 317.89 393.57 317.4 393.57 L 317.4 393.57 L 317.4 393.57 Q 316.91 393.57 316.511 393.759 L 316.511 393.759 L 316.511 393.759 Q 316.112 393.948 315.825 394.298 L 315.825 394.298 L 315.825 394.298 Q 315.538 394.648 315.384 395.131 L 315.384 395.131 L 315.384 395.131 Q 315.23 395.614 315.23 396.202 Z  M 325.184 399.59 L 322.314 392.786 L 323.476 392.786 L 325.044 396.65 L 325.044 396.65 Q 325.254 397.168 325.443 397.665 L 325.443 397.665 L 325.443 397.665 Q 325.632 398.162 325.814 398.652 L 325.814 398.652 L 325.87 398.652 L 325.87 398.652 Q 326.052 398.162 326.227 397.665 L 326.227 397.665 L 326.227 397.665 Q 326.402 397.168 326.612 396.65 L 326.612 396.65 L 328.18 392.786 L 329.286 392.786 L 326.472 399.59 L 325.184 399.59 Z  M 330.966 396.202 L 330.966 396.202 L 330.966 396.202 Q 330.966 395.362 331.26 394.697 L 331.26 394.697 L 331.26 394.697 Q 331.554 394.032 332.037 393.57 L 332.037 393.57 L 332.037 393.57 Q 332.52 393.108 333.143 392.863 L 333.143 392.863 L 333.143 392.863 Q 333.766 392.618 334.424 392.618 L 334.424 392.618 L 334.424 392.618 Q 335.152 392.618 335.726 392.849 L 335.726 392.849 L 335.726 392.849 Q 336.3 393.08 336.699 393.5 L 336.699 393.5 L 336.699 393.5 Q 337.098 393.92 337.308 394.508 L 337.308 394.508 L 337.308 394.508 Q 337.518 395.096 337.518 395.81 L 337.518 395.81 L 337.518 395.81 Q 337.518 395.992 337.511 396.167 L 337.511 396.167 L 337.511 396.167 Q 337.504 396.342 337.476 396.468 L 337.476 396.468 L 332.156 396.468 L 332.156 396.468 Q 332.17 397.014 332.373 397.448 L 332.373 397.448 L 332.373 397.448 Q 332.576 397.882 332.919 398.19 L 332.919 398.19 L 332.919 398.19 Q 333.262 398.498 333.731 398.666 L 333.731 398.666 L 333.731 398.666 Q 334.2 398.834 334.76 398.834 L 334.76 398.834 L 334.76 398.834 Q 335.362 398.834 335.859 398.666 L 335.859 398.666 L 335.859 398.666 Q 336.356 398.498 336.832 398.204 L 336.832 398.204 L 337.238 398.96 L 337.238 398.96 Q 336.734 399.282 336.09 399.52 L 336.09 399.52 L 336.09 399.52 Q 335.446 399.758 334.62 399.758 L 334.62 399.758 L 334.62 399.758 Q 333.864 399.758 333.199 399.513 L 333.199 399.513 L 333.199 399.513 Q 332.534 399.268 332.037 398.813 L 332.037 398.813 L 332.037 398.813 Q 331.54 398.358 331.253 397.7 L 331.253 397.7 L 331.253 397.7 Q 330.966 397.042 330.966 396.202 Z  M 332.142 395.642 L 336.454 395.642 L 336.454 395.642 Q 336.454 394.62 335.922 394.074 L 335.922 394.074 L 335.922 394.074 Q 335.39 393.528 334.438 393.528 L 334.438 393.528 L 334.438 393.528 Q 334.018 393.528 333.633 393.668 L 333.633 393.668 L 333.633 393.668 Q 333.248 393.808 332.94 394.081 L 332.94 394.081 L 332.94 394.081 Q 332.632 394.354 332.422 394.746 L 332.422 394.746 L 332.422 394.746 Q 332.212 395.138 332.142 395.642 L 332.142 395.642 Z  M 344.462 402.054 L 344.462 402.054 L 344.462 402.054 Q 343.006 400.92 342.159 399.324 L 342.159 399.324 L 342.159 399.324 Q 341.312 397.728 341.312 395.698 L 341.312 395.698 L 341.312 395.698 Q 341.312 393.668 342.159 392.072 L 342.159 392.072 L 342.159 392.072 Q 343.006 390.476 344.462 389.342 L 344.462 389.342 L 345.092 389.93 L 345.092 389.93 Q 343.678 391.12 343.013 392.52 L 343.013 392.52 L 343.013 392.52 Q 342.348 393.92 342.348 395.698 L 342.348 395.698 L 342.348 395.698 Q 342.348 397.476 343.013 398.876 L 343.013 398.876 L 343.013 398.876 Q 343.678 400.276 345.092 401.466 L 345.092 401.466 L 344.462 402.054 Z  M 349.138 402.054 L 348.508 401.466 L 348.508 401.466 Q 349.922 400.276 350.587 398.876 L 350.587 398.876 L 350.587 398.876 Q 351.252 397.476 351.252 395.698 L 351.252 395.698 L 351.252 395.698 Q 351.252 393.92 350.587 392.52 L 350.587 392.52 L 350.587 392.52 Q 349.922 391.12 348.508 389.93 L 348.508 389.93 L 349.138 389.342 L 349.138 389.342 Q 350.594 390.476 351.441 392.072 L 351.441 392.072 L 351.441 392.072 Q 352.288 393.668 352.288 395.698 L 352.288 395.698 L 352.288 395.698 Q 352.288 397.728 351.441 399.324 L 351.441 399.324 L 351.441 399.324 Q 350.594 400.92 349.138 402.054 L 349.138 402.054 Z  M 358.266 393.57 L 358.266 393.57 L 358.266 393.57 Q 358.266 393.038 358.595 392.709 L 358.595 392.709 L 358.595 392.709 Q 358.924 392.38 359.4 392.38 L 359.4 392.38 L 359.4 392.38 Q 359.876 392.38 360.205 392.709 L 360.205 392.709 L 360.205 392.709 Q 360.534 393.038 360.534 393.57 L 360.534 393.57 L 360.534 393.57 Q 360.534 394.102 360.205 394.424 L 360.205 394.424 L 360.205 394.424 Q 359.876 394.746 359.4 394.746 L 359.4 394.746 L 359.4 394.746 Q 358.924 394.746 358.595 394.424 L 358.595 394.424 L 358.595 394.424 Q 358.266 394.102 358.266 393.57 Z  M 358.28 402.572 L 357.958 401.844 L 357.958 401.844 Q 358.826 401.452 359.26 400.899 L 359.26 400.899 L 359.26 400.899 Q 359.694 400.346 359.722 399.506 L 359.722 399.506 L 359.722 399.506 Q 359.652 399.52 359.589 399.527 L 359.589 399.527 L 359.589 399.527 Q 359.526 399.534 359.456 399.534 L 359.456 399.534 L 359.456 399.534 Q 359.008 399.534 358.686 399.275 L 358.686 399.275 L 358.686 399.275 Q 358.364 399.016 358.364 398.484 L 358.364 398.484 L 358.364 398.484 Q 358.364 397.966 358.7 397.693 L 358.7 397.693 L 358.7 397.693 Q 359.036 397.42 359.484 397.42 L 359.484 397.42 L 359.484 397.42 Q 360.114 397.42 360.429 397.903 L 360.429 397.903 L 360.429 397.903 Q 360.744 398.386 360.744 399.212 L 360.744 399.212 L 360.744 399.212 Q 360.744 400.444 360.093 401.291 L 360.093 401.291 L 360.093 401.291 Q 359.442 402.138 358.28 402.572 L 358.28 402.572 Z  M 282.666 380.984 L 282.666 380.984 L 282.666 380.984 Q 282.666 380.452 282.995 380.123 L 282.995 380.123 L 282.995 380.123 Q 283.324 379.794 283.8 379.794 L 283.8 379.794 L 283.8 379.794 Q 284.276 379.794 284.605 380.123 L 284.605 380.123 L 284.605 380.123 Q 284.934 380.452 284.934 380.984 L 284.934 380.984 L 284.934 380.984 Q 284.934 381.516 284.605 381.838 L 284.605 381.838 L 284.605 381.838 Q 284.276 382.16 283.8 382.16 L 283.8 382.16 L 283.8 382.16 Q 283.324 382.16 282.995 381.838 L 282.995 381.838 L 282.995 381.838 Q 282.666 381.516 282.666 380.984 Z  M 288.966 378.604 L 288.966 378.604 L 288.966 378.604 Q 288.966 377.764 289.26 377.099 L 289.26 377.099 L 289.26 377.099 Q 289.554 376.434 290.037 375.972 L 290.037 375.972 L 290.037 375.972 Q 290.52 375.51 291.143 375.265 L 291.143 375.265 L 291.143 375.265 Q 291.766 375.02 292.424 375.02 L 292.424 375.02 L 292.424 375.02 Q 293.152 375.02 293.726 375.251 L 293.726 375.251 L 293.726 375.251 Q 294.3 375.482 294.699 375.902 L 294.699 375.902 L 294.699 375.902 Q 295.098 376.322 295.308 376.91 L 295.308 376.91 L 295.308 376.91 Q 295.518 377.498 295.518 378.212 L 295.518 378.212 L 295.518 378.212 Q 295.518 378.394 295.511 378.569 L 295.511 378.569 L 295.511 378.569 Q 295.504 378.744 295.476 378.87 L 295.476 378.87 L 290.156 378.87 L 290.156 378.87 Q 290.17 379.416 290.373 379.85 L 290.373 379.85 L 290.373 379.85 Q 290.576 380.284 290.919 380.592 L 290.919 380.592 L 290.919 380.592 Q 291.262 380.9 291.731 381.068 L 291.731 381.068 L 291.731 381.068 Q 292.2 381.236 292.76 381.236 L 292.76 381.236 L 292.76 381.236 Q 293.362 381.236 293.859 381.068 L 293.859 381.068 L 293.859 381.068 Q 294.356 380.9 294.832 380.606 L 294.832 380.606 L 295.238 381.362 L 295.238 381.362 Q 294.734 381.684 294.09 381.922 L 294.09 381.922 L 294.09 381.922 Q 293.446 382.16 292.62 382.16 L 292.62 382.16 L 292.62 382.16 Q 291.864 382.16 291.199 381.915 L 291.199 381.915 L 291.199 381.915 Q 290.534 381.67 290.037 381.215 L 290.037 381.215 L 290.037 381.215 Q 289.54 380.76 289.253 380.102 L 289.253 380.102 L 289.253 380.102 Q 288.966 379.444 288.966 378.604 Z  M 290.142 378.044 L 294.454 378.044 L 294.454 378.044 Q 294.454 377.022 293.922 376.476 L 293.922 376.476 L 293.922 376.476 Q 293.39 375.93 292.438 375.93 L 292.438 375.93 L 292.438 375.93 Q 292.018 375.93 291.633 376.07 L 291.633 376.07 L 291.633 376.07 Q 291.248 376.21 290.94 376.483 L 290.94 376.483 L 290.94 376.483 Q 290.632 376.756 290.422 377.148 L 290.422 377.148 L 290.422 377.148 Q 290.212 377.54 290.142 378.044 L 290.142 378.044 Z  M 297.296 381.992 L 299.886 378.464 L 297.492 375.188 L 298.766 375.188 L 299.844 376.686 L 299.844 376.686 Q 300.026 376.966 300.229 377.26 L 300.229 377.26 L 300.229 377.26 Q 300.432 377.554 300.642 377.834 L 300.642 377.834 L 300.698 377.834 L 300.698 377.834 Q 300.894 377.554 301.09 377.246 L 301.09 377.246 L 301.09 377.246 Q 301.286 376.938 301.468 376.658 L 301.468 376.658 L 302.49 375.188 L 303.708 375.188 L 301.286 378.562 L 303.89 381.992 L 302.63 381.992 L 301.44 380.424 L 301.44 380.424 Q 301.23 380.13 300.999 379.808 L 300.999 379.808 L 300.999 379.808 Q 300.768 379.486 300.544 379.192 L 300.544 379.192 L 300.488 379.192 L 300.488 379.192 Q 300.278 379.5 300.068 379.801 L 300.068 379.801 L 300.068 379.801 Q 299.858 380.102 299.648 380.424 L 299.648 380.424 L 298.528 381.992 L 297.296 381.992 Z  M 306.06 376.126 L 306.06 375.188 L 310.372 375.188 L 310.372 381.992 L 309.224 381.992 L 309.224 376.126 L 306.06 376.126 Z  M 309.672 373.788 L 309.672 373.788 L 309.672 373.788 Q 309.266 373.788 309.007 373.55 L 309.007 373.55 L 309.007 373.55 Q 308.748 373.312 308.748 372.906 L 308.748 372.906 L 308.748 372.906 Q 308.748 372.5 309.007 372.255 L 309.007 372.255 L 309.007 372.255 Q 309.266 372.01 309.672 372.01 L 309.672 372.01 L 309.672 372.01 Q 310.064 372.01 310.33 372.255 L 310.33 372.255 L 310.33 372.255 Q 310.596 372.5 310.596 372.906 L 310.596 372.906 L 310.596 372.906 Q 310.596 373.312 310.33 373.55 L 310.33 373.55 L 310.33 373.55 Q 310.064 373.788 309.672 373.788 Z  M 316.084 379.346 L 316.084 376.126 L 314.166 376.126 L 314.166 375.258 L 316.126 375.188 L 316.28 373.284 L 317.232 373.284 L 317.232 375.188 L 320.578 375.188 L 320.578 376.126 L 317.232 376.126 L 317.232 379.36 L 317.232 379.36 Q 317.232 379.822 317.316 380.165 L 317.316 380.165 L 317.316 380.165 Q 317.4 380.508 317.596 380.746 L 317.596 380.746 L 317.596 380.746 Q 317.792 380.984 318.128 381.103 L 318.128 381.103 L 318.128 381.103 Q 318.464 381.222 318.954 381.222 L 318.954 381.222 L 318.954 381.222 Q 319.444 381.222 319.836 381.138 L 319.836 381.138 L 319.836 381.138 Q 320.228 381.054 320.592 380.914 L 320.592 380.914 L 320.844 381.754 L 320.844 381.754 Q 320.382 381.922 319.822 382.041 L 319.822 382.041 L 319.822 382.041 Q 319.262 382.16 318.702 382.16 L 318.702 382.16 L 318.702 382.16 Q 317.96 382.16 317.456 381.957 L 317.456 381.957 L 317.456 381.957 Q 316.952 381.754 316.651 381.383 L 316.651 381.383 L 316.651 381.383 Q 316.35 381.012 316.217 380.494 L 316.217 380.494 L 316.217 380.494 Q 316.084 379.976 316.084 379.346 L 316.084 379.346 Z  M 327.662 384.456 L 327.662 384.456 L 327.662 384.456 Q 326.206 383.322 325.359 381.726 L 325.359 381.726 L 325.359 381.726 Q 324.512 380.13 324.512 378.1 L 324.512 378.1 L 324.512 378.1 Q 324.512 376.07 325.359 374.474 L 325.359 374.474 L 325.359 374.474 Q 326.206 372.878 327.662 371.744 L 327.662 371.744 L 328.292 372.332 L 328.292 372.332 Q 326.878 373.522 326.213 374.922 L 326.213 374.922 L 326.213 374.922 Q 325.548 376.322 325.548 378.1 L 325.548 378.1 L 325.548 378.1 Q 325.548 379.878 326.213 381.278 L 326.213 381.278 L 326.213 381.278 Q 326.878 382.678 328.292 383.868 L 328.292 383.868 L 327.662 384.456 Z  M 332.338 384.456 L 331.708 383.868 L 331.708 383.868 Q 333.122 382.678 333.787 381.278 L 333.787 381.278 L 333.787 381.278 Q 334.452 379.878 334.452 378.1 L 334.452 378.1 L 334.452 378.1 Q 334.452 376.322 333.787 374.922 L 333.787 374.922 L 333.787 374.922 Q 333.122 373.522 331.708 372.332 L 331.708 372.332 L 332.338 371.744 L 332.338 371.744 Q 333.794 372.878 334.641 374.474 L 334.641 374.474 L 334.641 374.474 Q 335.488 376.07 335.488 378.1 L 335.488 378.1 L 335.488 378.1 Q 335.488 380.13 334.641 381.726 L 334.641 381.726 L 334.641 381.726 Q 333.794 383.322 332.338 384.456 L 332.338 384.456 Z  M 247.008 363.498 L 247.568 362.742 L 247.568 362.742 Q 248.142 363.162 248.8 363.414 L 248.8 363.414 L 248.8 363.414 Q 249.458 363.666 250.382 363.666 L 250.382 363.666 L 250.382 363.666 Q 251.306 363.666 251.754 363.358 L 251.754 363.358 L 251.754 363.358 Q 252.202 363.05 252.202 362.602 L 252.202 362.602 L 252.202 362.602 Q 252.202 362.21 251.719 361.902 L 251.719 361.902 L 251.719 361.902 Q 251.236 361.594 249.99 361.286 L 249.99 361.286 L 249.99 361.286 Q 249.458 361.16 248.989 360.978 L 248.989 360.978 L 248.989 360.978 Q 248.52 360.796 248.17 360.551 L 248.17 360.551 L 248.17 360.551 Q 247.82 360.306 247.61 360.012 L 247.61 360.012 L 247.61 360.012 Q 247.4 359.718 247.4 359.354 L 247.4 359.354 L 247.4 359.354 Q 247.4 358.948 247.582 358.591 L 247.582 358.591 L 247.582 358.591 Q 247.764 358.234 248.121 357.975 L 248.121 357.975 L 248.121 357.975 Q 248.478 357.716 249.017 357.569 L 249.017 357.569 L 249.017 357.569 Q 249.556 357.422 250.256 357.422 L 250.256 357.422 L 250.256 357.422 Q 251.026 357.422 251.754 357.681 L 251.754 357.681 L 251.754 357.681 Q 252.482 357.94 252.986 358.29 L 252.986 358.29 L 252.426 359.032 L 252.426 359.032 Q 251.978 358.71 251.432 358.514 L 251.432 358.514 L 251.432 358.514 Q 250.886 358.318 250.256 358.318 L 250.256 358.318 L 250.256 358.318 Q 249.78 358.318 249.458 358.395 L 249.458 358.395 L 249.458 358.395 Q 249.136 358.472 248.94 358.605 L 248.94 358.605 L 248.94 358.605 Q 248.744 358.738 248.66 358.92 L 248.66 358.92 L 248.66 358.92 Q 248.576 359.102 248.576 359.298 L 248.576 359.298 L 248.576 359.298 Q 248.576 359.718 249.15 359.991 L 249.15 359.991 L 249.15 359.991 Q 249.724 360.264 250.648 360.502 L 250.648 360.502 L 250.648 360.502 Q 252.034 360.852 252.699 361.3 L 252.699 361.3 L 252.699 361.3 Q 253.364 361.748 253.364 362.532 L 253.364 362.532 L 253.364 362.532 Q 253.364 362.952 253.168 363.316 L 253.168 363.316 L 253.168 363.316 Q 252.972 363.68 252.587 363.96 L 252.587 363.96 L 252.587 363.96 Q 252.202 364.24 251.635 364.401 L 251.635 364.401 L 251.635 364.401 Q 251.068 364.562 250.34 364.562 L 250.34 364.562 L 250.34 364.562 Q 249.332 364.562 248.485 364.247 L 248.485 364.247 L 248.485 364.247 Q 247.638 363.932 247.008 363.498 L 247.008 363.498 Z  M 255.366 361.006 L 255.366 361.006 L 255.366 361.006 Q 255.366 360.166 255.66 359.501 L 255.66 359.501 L 255.66 359.501 Q 255.954 358.836 256.437 358.374 L 256.437 358.374 L 256.437 358.374 Q 256.92 357.912 257.543 357.667 L 257.543 357.667 L 257.543 357.667 Q 258.166 357.422 258.824 357.422 L 258.824 357.422 L 258.824 357.422 Q 259.552 357.422 260.126 357.653 L 260.126 357.653 L 260.126 357.653 Q 260.7 357.884 261.099 358.304 L 261.099 358.304 L 261.099 358.304 Q 261.498 358.724 261.708 359.312 L 261.708 359.312 L 261.708 359.312 Q 261.918 359.9 261.918 360.614 L 261.918 360.614 L 261.918 360.614 Q 261.918 360.796 261.911 360.971 L 261.911 360.971 L 261.911 360.971 Q 261.904 361.146 261.876 361.272 L 261.876 361.272 L 256.556 361.272 L 256.556 361.272 Q 256.57 361.818 256.773 362.252 L 256.773 362.252 L 256.773 362.252 Q 256.976 362.686 257.319 362.994 L 257.319 362.994 L 257.319 362.994 Q 257.662 363.302 258.131 363.47 L 258.131 363.47 L 258.131 363.47 Q 258.6 363.638 259.16 363.638 L 259.16 363.638 L 259.16 363.638 Q 259.762 363.638 260.259 363.47 L 260.259 363.47 L 260.259 363.47 Q 260.756 363.302 261.232 363.008 L 261.232 363.008 L 261.638 363.764 L 261.638 363.764 Q 261.134 364.086 260.49 364.324 L 260.49 364.324 L 260.49 364.324 Q 259.846 364.562 259.02 364.562 L 259.02 364.562 L 259.02 364.562 Q 258.264 364.562 257.599 364.317 L 257.599 364.317 L 257.599 364.317 Q 256.934 364.072 256.437 363.617 L 256.437 363.617 L 256.437 363.617 Q 255.94 363.162 255.653 362.504 L 255.653 362.504 L 255.653 362.504 Q 255.366 361.846 255.366 361.006 Z  M 256.542 360.446 L 260.854 360.446 L 260.854 360.446 Q 260.854 359.424 260.322 358.878 L 260.322 358.878 L 260.322 358.878 Q 259.79 358.332 258.838 358.332 L 258.838 358.332 L 258.838 358.332 Q 258.418 358.332 258.033 358.472 L 258.033 358.472 L 258.033 358.472 Q 257.648 358.612 257.34 358.885 L 257.34 358.885 L 257.34 358.885 Q 257.032 359.158 256.822 359.55 L 256.822 359.55 L 256.822 359.55 Q 256.612 359.942 256.542 360.446 L 256.542 360.446 Z  M 263.934 355.364 L 263.934 354.426 L 267.406 354.426 L 267.406 362.196 L 267.406 362.196 Q 267.406 362.952 267.763 363.281 L 267.763 363.281 L 267.763 363.281 Q 268.12 363.61 268.736 363.61 L 268.736 363.61 L 268.736 363.61 Q 269.296 363.61 270.024 363.288 L 270.024 363.288 L 270.318 364.156 L 270.318 364.156 Q 269.856 364.324 269.45 364.443 L 269.45 364.443 L 269.45 364.443 Q 269.044 364.562 268.484 364.562 L 268.484 364.562 L 268.484 364.562 Q 267.392 364.562 266.825 363.946 L 266.825 363.946 L 266.825 363.946 Q 266.258 363.33 266.258 362.112 L 266.258 362.112 L 266.258 355.364 L 263.934 355.364 Z  M 272.166 361.006 L 272.166 361.006 L 272.166 361.006 Q 272.166 360.166 272.46 359.501 L 272.46 359.501 L 272.46 359.501 Q 272.754 358.836 273.237 358.374 L 273.237 358.374 L 273.237 358.374 Q 273.72 357.912 274.343 357.667 L 274.343 357.667 L 274.343 357.667 Q 274.966 357.422 275.624 357.422 L 275.624 357.422 L 275.624 357.422 Q 276.352 357.422 276.926 357.653 L 276.926 357.653 L 276.926 357.653 Q 277.5 357.884 277.899 358.304 L 277.899 358.304 L 277.899 358.304 Q 278.298 358.724 278.508 359.312 L 278.508 359.312 L 278.508 359.312 Q 278.718 359.9 278.718 360.614 L 278.718 360.614 L 278.718 360.614 Q 278.718 360.796 278.711 360.971 L 278.711 360.971 L 278.711 360.971 Q 278.704 361.146 278.676 361.272 L 278.676 361.272 L 273.356 361.272 L 273.356 361.272 Q 273.37 361.818 273.573 362.252 L 273.573 362.252 L 273.573 362.252 Q 273.776 362.686 274.119 362.994 L 274.119 362.994 L 274.119 362.994 Q 274.462 363.302 274.931 363.47 L 274.931 363.47 L 274.931 363.47 Q 275.4 363.638 275.96 363.638 L 275.96 363.638 L 275.96 363.638 Q 276.562 363.638 277.059 363.47 L 277.059 363.47 L 277.059 363.47 Q 277.556 363.302 278.032 363.008 L 278.032 363.008 L 278.438 363.764 L 278.438 363.764 Q 277.934 364.086 277.29 364.324 L 277.29 364.324 L 277.29 364.324 Q 276.646 364.562 275.82 364.562 L 275.82 364.562 L 275.82 364.562 Q 275.064 364.562 274.399 364.317 L 274.399 364.317 L 274.399 364.317 Q 273.734 364.072 273.237 363.617 L 273.237 363.617 L 273.237 363.617 Q 272.74 363.162 272.453 362.504 L 272.453 362.504 L 272.453 362.504 Q 272.166 361.846 272.166 361.006 Z  M 273.342 360.446 L 277.654 360.446 L 277.654 360.446 Q 277.654 359.424 277.122 358.878 L 277.122 358.878 L 277.122 358.878 Q 276.59 358.332 275.638 358.332 L 275.638 358.332 L 275.638 358.332 Q 275.218 358.332 274.833 358.472 L 274.833 358.472 L 274.833 358.472 Q 274.448 358.612 274.14 358.885 L 274.14 358.885 L 274.14 358.885 Q 273.832 359.158 273.622 359.55 L 273.622 359.55 L 273.622 359.55 Q 273.412 359.942 273.342 360.446 L 273.342 360.446 Z  M 280.72 361.006 L 280.72 361.006 L 280.72 361.006 Q 280.72 360.152 281.021 359.487 L 281.021 359.487 L 281.021 359.487 Q 281.322 358.822 281.84 358.36 L 281.84 358.36 L 281.84 358.36 Q 282.358 357.898 283.051 357.66 L 283.051 357.66 L 283.051 357.66 Q 283.744 357.422 284.514 357.422 L 284.514 357.422 L 284.514 357.422 Q 285.354 357.422 285.963 357.716 L 285.963 357.716 L 285.963 357.716 Q 286.572 358.01 286.992 358.416 L 286.992 358.416 L 286.418 359.158 L 286.418 359.158 Q 285.998 358.794 285.543 358.584 L 285.543 358.584 L 285.543 358.584 Q 285.088 358.374 284.556 358.374 L 284.556 358.374 L 284.556 358.374 Q 283.968 358.374 283.478 358.563 L 283.478 358.563 L 283.478 358.563 Q 282.988 358.752 282.645 359.102 L 282.645 359.102 L 282.645 359.102 Q 282.302 359.452 282.106 359.935 L 282.106 359.935 L 282.106 359.935 Q 281.91 360.418 281.91 361.006 L 281.91 361.006 L 281.91 361.006 Q 281.91 361.594 282.099 362.07 L 282.099 362.07 L 282.099 362.07 Q 282.288 362.546 282.631 362.889 L 282.631 362.889 L 282.631 362.889 Q 282.974 363.232 283.457 363.421 L 283.457 363.421 L 283.457 363.421 Q 283.94 363.61 284.528 363.61 L 284.528 363.61 L 284.528 363.61 Q 285.158 363.61 285.683 363.365 L 285.683 363.365 L 285.683 363.365 Q 286.208 363.12 286.642 362.756 L 286.642 362.756 L 287.146 363.498 L 287.146 363.498 Q 286.586 364.002 285.893 364.282 L 285.893 364.282 L 285.893 364.282 Q 285.2 364.562 284.444 364.562 L 284.444 364.562 L 284.444 364.562 Q 283.646 364.562 282.967 364.324 L 282.967 364.324 L 282.967 364.324 Q 282.288 364.086 281.784 363.631 L 281.784 363.631 L 281.784 363.631 Q 281.28 363.176 281 362.511 L 281 362.511 L 281 362.511 Q 280.72 361.846 280.72 361.006 Z  M 290.884 361.748 L 290.884 358.528 L 288.966 358.528 L 288.966 357.66 L 290.926 357.59 L 291.08 355.686 L 292.032 355.686 L 292.032 357.59 L 295.378 357.59 L 295.378 358.528 L 292.032 358.528 L 292.032 361.762 L 292.032 361.762 Q 292.032 362.224 292.116 362.567 L 292.116 362.567 L 292.116 362.567 Q 292.2 362.91 292.396 363.148 L 292.396 363.148 L 292.396 363.148 Q 292.592 363.386 292.928 363.505 L 292.928 363.505 L 292.928 363.505 Q 293.264 363.624 293.754 363.624 L 293.754 363.624 L 293.754 363.624 Q 294.244 363.624 294.636 363.54 L 294.636 363.54 L 294.636 363.54 Q 295.028 363.456 295.392 363.316 L 295.392 363.316 L 295.644 364.156 L 295.644 364.156 Q 295.182 364.324 294.622 364.443 L 294.622 364.443 L 294.622 364.443 Q 294.062 364.562 293.502 364.562 L 293.502 364.562 L 293.502 364.562 Q 292.76 364.562 292.256 364.359 L 292.256 364.359 L 292.256 364.359 Q 291.752 364.156 291.451 363.785 L 291.451 363.785 L 291.451 363.785 Q 291.15 363.414 291.017 362.896 L 291.017 362.896 L 291.017 362.896 Q 290.884 362.378 290.884 361.748 L 290.884 361.748 Z  M 297.66 358.528 L 297.66 357.59 L 301.972 357.59 L 301.972 364.394 L 300.824 364.394 L 300.824 358.528 L 297.66 358.528 Z  M 301.272 356.19 L 301.272 356.19 L 301.272 356.19 Q 300.866 356.19 300.607 355.952 L 300.607 355.952 L 300.607 355.952 Q 300.348 355.714 300.348 355.308 L 300.348 355.308 L 300.348 355.308 Q 300.348 354.902 300.607 354.657 L 300.607 354.657 L 300.607 354.657 Q 300.866 354.412 301.272 354.412 L 301.272 354.412 L 301.272 354.412 Q 301.664 354.412 301.93 354.657 L 301.93 354.657 L 301.93 354.657 Q 302.196 354.902 302.196 355.308 L 302.196 355.308 L 302.196 355.308 Q 302.196 355.714 301.93 355.952 L 301.93 355.952 L 301.93 355.952 Q 301.664 356.19 301.272 356.19 Z  M 305.64 361.006 L 305.64 361.006 L 305.64 361.006 Q 305.64 360.152 305.913 359.487 L 305.913 359.487 L 305.913 359.487 Q 306.186 358.822 306.648 358.36 L 306.648 358.36 L 306.648 358.36 Q 307.11 357.898 307.719 357.66 L 307.719 357.66 L 307.719 357.66 Q 308.328 357.422 309 357.422 L 309 357.422 L 309 357.422 Q 309.672 357.422 310.281 357.66 L 310.281 357.66 L 310.281 357.66 Q 310.89 357.898 311.352 358.36 L 311.352 358.36 L 311.352 358.36 Q 311.814 358.822 312.087 359.487 L 312.087 359.487 L 312.087 359.487 Q 312.36 360.152 312.36 361.006 L 312.36 361.006 L 312.36 361.006 Q 312.36 361.846 312.087 362.511 L 312.087 362.511 L 312.087 362.511 Q 311.814 363.176 311.352 363.631 L 311.352 363.631 L 311.352 363.631 Q 310.89 364.086 310.281 364.324 L 310.281 364.324 L 310.281 364.324 Q 309.672 364.562 309 364.562 L 309 364.562 L 309 364.562 Q 308.328 364.562 307.719 364.324 L 307.719 364.324 L 307.719 364.324 Q 307.11 364.086 306.648 363.631 L 306.648 363.631 L 306.648 363.631 Q 306.186 363.176 305.913 362.511 L 305.913 362.511 L 305.913 362.511 Q 305.64 361.846 305.64 361.006 Z  M 306.83 361.006 L 306.83 361.006 L 306.83 361.006 Q 306.83 361.594 306.984 362.07 L 306.984 362.07 L 306.984 362.07 Q 307.138 362.546 307.425 362.889 L 307.425 362.889 L 307.425 362.889 Q 307.712 363.232 308.111 363.421 L 308.111 363.421 L 308.111 363.421 Q 308.51 363.61 309 363.61 L 309 363.61 L 309 363.61 Q 309.49 363.61 309.889 363.421 L 309.889 363.421 L 309.889 363.421 Q 310.288 363.232 310.575 362.889 L 310.575 362.889 L 310.575 362.889 Q 310.862 362.546 311.016 362.07 L 311.016 362.07 L 311.016 362.07 Q 311.17 361.594 311.17 361.006 L 311.17 361.006 L 311.17 361.006 Q 311.17 360.418 311.016 359.935 L 311.016 359.935 L 311.016 359.935 Q 310.862 359.452 310.575 359.102 L 310.575 359.102 L 310.575 359.102 Q 310.288 358.752 309.889 358.563 L 309.889 358.563 L 309.889 358.563 Q 309.49 358.374 309 358.374 L 309 358.374 L 309 358.374 Q 308.51 358.374 308.111 358.563 L 308.111 358.563 L 308.111 358.563 Q 307.712 358.752 307.425 359.102 L 307.425 359.102 L 307.425 359.102 Q 307.138 359.452 306.984 359.935 L 306.984 359.935 L 306.984 359.935 Q 306.83 360.418 306.83 361.006 Z  M 314.502 364.394 L 314.502 357.59 L 315.454 357.59 L 315.552 358.752 L 315.608 358.752 L 315.608 358.752 Q 316.14 358.178 316.756 357.8 L 316.756 357.8 L 316.756 357.8 Q 317.372 357.422 318.17 357.422 L 318.17 357.422 L 318.17 357.422 Q 319.388 357.422 319.955 358.115 L 319.955 358.115 L 319.955 358.115 Q 320.522 358.808 320.522 360.166 L 320.522 360.166 L 320.522 364.394 L 319.374 364.394 L 319.374 360.32 L 319.374 360.32 Q 319.374 359.354 319.01 358.885 L 319.01 358.885 L 319.01 358.885 Q 318.646 358.416 317.806 358.416 L 317.806 358.416 L 317.806 358.416 Q 317.498 358.416 317.239 358.493 L 317.239 358.493 L 317.239 358.493 Q 316.98 358.57 316.728 358.724 L 316.728 358.724 L 316.728 358.724 Q 316.476 358.878 316.21 359.109 L 316.21 359.109 L 316.21 359.109 Q 315.944 359.34 315.65 359.648 L 315.65 359.648 L 315.65 364.394 L 314.502 364.394 Z  M 324.666 363.386 L 324.666 363.386 L 324.666 363.386 Q 324.666 362.854 324.995 362.525 L 324.995 362.525 L 324.995 362.525 Q 325.324 362.196 325.8 362.196 L 325.8 362.196 L 325.8 362.196 Q 326.276 362.196 326.605 362.525 L 326.605 362.525 L 326.605 362.525 Q 326.934 362.854 326.934 363.386 L 326.934 363.386 L 326.934 363.386 Q 326.934 363.918 326.605 364.24 L 326.605 364.24 L 326.605 364.24 Q 326.276 364.562 325.8 364.562 L 325.8 364.562 L 325.8 364.562 Q 325.324 364.562 324.995 364.24 L 324.995 364.24 L 324.995 364.24 Q 324.666 363.918 324.666 363.386 Z  M 330.84 361.006 L 330.84 361.006 L 330.84 361.006 Q 330.84 360.18 331.099 359.515 L 331.099 359.515 L 331.099 359.515 Q 331.358 358.85 331.785 358.388 L 331.785 358.388 L 331.785 358.388 Q 332.212 357.926 332.772 357.674 L 332.772 357.674 L 332.772 357.674 Q 333.332 357.422 333.934 357.422 L 333.934 357.422 L 333.934 357.422 Q 334.564 357.422 335.04 357.66 L 335.04 357.66 L 335.04 357.66 Q 335.516 357.898 335.992 358.304 L 335.992 358.304 L 335.95 357.044 L 335.95 354.426 L 337.098 354.426 L 337.098 364.394 L 336.146 364.394 L 336.048 363.498 L 336.006 363.498 L 336.006 363.498 Q 335.586 363.932 335.005 364.247 L 335.005 364.247 L 335.005 364.247 Q 334.424 364.562 333.794 364.562 L 333.794 364.562 L 333.794 364.562 Q 333.122 364.562 332.583 364.324 L 332.583 364.324 L 332.583 364.324 Q 332.044 364.086 331.652 363.631 L 331.652 363.631 L 331.652 363.631 Q 331.26 363.176 331.05 362.518 L 331.05 362.518 L 331.05 362.518 Q 330.84 361.86 330.84 361.006 Z  M 332.03 360.992 L 332.03 360.992 L 332.03 360.992 Q 332.03 362.224 332.555 362.91 L 332.555 362.91 L 332.555 362.91 Q 333.08 363.596 334.032 363.596 L 334.032 363.596 L 334.032 363.596 Q 335.04 363.596 335.95 362.574 L 335.95 362.574 L 335.95 359.186 L 335.95 359.186 Q 335.488 358.752 335.047 358.57 L 335.047 358.57 L 335.047 358.57 Q 334.606 358.388 334.158 358.388 L 334.158 358.388 L 334.158 358.388 Q 333.71 358.388 333.325 358.577 L 333.325 358.577 L 333.325 358.577 Q 332.94 358.766 332.653 359.109 L 332.653 359.109 L 332.653 359.109 Q 332.366 359.452 332.198 359.928 L 332.198 359.928 L 332.198 359.928 Q 332.03 360.404 332.03 360.992 Z  M 339.534 362.63 L 339.534 362.63 L 339.534 362.63 Q 339.534 362.056 339.807 361.629 L 339.807 361.629 L 339.807 361.629 Q 340.08 361.202 340.675 360.894 L 340.675 360.894 L 340.675 360.894 Q 341.27 360.586 342.208 360.39 L 342.208 360.39 L 342.208 360.39 Q 343.146 360.194 344.462 360.082 L 344.462 360.082 L 344.462 360.082 Q 344.448 359.732 344.35 359.424 L 344.35 359.424 L 344.35 359.424 Q 344.252 359.116 344.042 358.885 L 344.042 358.885 L 344.042 358.885 Q 343.832 358.654 343.489 358.514 L 343.489 358.514 L 343.489 358.514 Q 343.146 358.374 342.656 358.374 L 342.656 358.374 L 342.656 358.374 Q 341.984 358.374 341.368 358.633 L 341.368 358.633 L 341.368 358.633 Q 340.752 358.892 340.276 359.186 L 340.276 359.186 L 339.828 358.402 L 339.828 358.402 Q 340.08 358.234 340.423 358.059 L 340.423 358.059 L 340.423 358.059 Q 340.766 357.884 341.151 357.744 L 341.151 357.744 L 341.151 357.744 Q 341.536 357.604 341.97 357.513 L 341.97 357.513 L 341.97 357.513 Q 342.404 357.422 342.852 357.422 L 342.852 357.422 L 342.852 357.422 Q 344.252 357.422 344.931 358.185 L 344.931 358.185 L 344.931 358.185 Q 345.61 358.948 345.61 360.222 L 345.61 360.222 L 345.61 364.394 L 344.672 364.394 L 344.574 363.47 L 344.532 363.47 L 344.532 363.47 Q 343.958 363.918 343.265 364.24 L 343.265 364.24 L 343.265 364.24 Q 342.572 364.562 341.844 364.562 L 341.844 364.562 L 341.844 364.562 Q 341.368 364.562 340.948 364.429 L 340.948 364.429 L 340.948 364.429 Q 340.528 364.296 340.213 364.051 L 340.213 364.051 L 340.213 364.051 Q 339.898 363.806 339.716 363.449 L 339.716 363.449 L 339.716 363.449 Q 339.534 363.092 339.534 362.63 Z  M 340.654 362.546 L 340.654 362.546 L 340.654 362.546 Q 340.654 362.84 340.78 363.043 L 340.78 363.043 L 340.78 363.043 Q 340.906 363.246 341.109 363.379 L 341.109 363.379 L 341.109 363.379 Q 341.312 363.512 341.585 363.575 L 341.585 363.575 L 341.585 363.575 Q 341.858 363.638 342.152 363.638 L 342.152 363.638 L 342.152 363.638 Q 342.74 363.638 343.307 363.379 L 343.307 363.379 L 343.307 363.379 Q 343.874 363.12 344.462 362.63 L 344.462 362.63 L 344.462 360.838 L 344.462 360.838 Q 343.37 360.922 342.635 361.076 L 342.635 361.076 L 342.635 361.076 Q 341.9 361.23 341.459 361.447 L 341.459 361.447 L 341.459 361.447 Q 341.018 361.664 340.836 361.937 L 340.836 361.937 L 340.836 361.937 Q 340.654 362.21 340.654 362.546 Z  M 349.684 361.748 L 349.684 358.528 L 347.766 358.528 L 347.766 357.66 L 349.726 357.59 L 349.88 355.686 L 350.832 355.686 L 350.832 357.59 L 354.178 357.59 L 354.178 358.528 L 350.832 358.528 L 350.832 361.762 L 350.832 361.762 Q 350.832 362.224 350.916 362.567 L 350.916 362.567 L 350.916 362.567 Q 351 362.91 351.196 363.148 L 351.196 363.148 L 351.196 363.148 Q 351.392 363.386 351.728 363.505 L 351.728 363.505 L 351.728 363.505 Q 352.064 363.624 352.554 363.624 L 352.554 363.624 L 352.554 363.624 Q 353.044 363.624 353.436 363.54 L 353.436 363.54 L 353.436 363.54 Q 353.828 363.456 354.192 363.316 L 354.192 363.316 L 354.444 364.156 L 354.444 364.156 Q 353.982 364.324 353.422 364.443 L 353.422 364.443 L 353.422 364.443 Q 352.862 364.562 352.302 364.562 L 352.302 364.562 L 352.302 364.562 Q 351.56 364.562 351.056 364.359 L 351.056 364.359 L 351.056 364.359 Q 350.552 364.156 350.251 363.785 L 350.251 363.785 L 350.251 363.785 Q 349.95 363.414 349.817 362.896 L 349.817 362.896 L 349.817 362.896 Q 349.684 362.378 349.684 361.748 L 349.684 361.748 Z  M 356.334 362.63 L 356.334 362.63 L 356.334 362.63 Q 356.334 362.056 356.607 361.629 L 356.607 361.629 L 356.607 361.629 Q 356.88 361.202 357.475 360.894 L 357.475 360.894 L 357.475 360.894 Q 358.07 360.586 359.008 360.39 L 359.008 360.39 L 359.008 360.39 Q 359.946 360.194 361.262 360.082 L 361.262 360.082 L 361.262 360.082 Q 361.248 359.732 361.15 359.424 L 361.15 359.424 L 361.15 359.424 Q 361.052 359.116 360.842 358.885 L 360.842 358.885 L 360.842 358.885 Q 360.632 358.654 360.289 358.514 L 360.289 358.514 L 360.289 358.514 Q 359.946 358.374 359.456 358.374 L 359.456 358.374 L 359.456 358.374 Q 358.784 358.374 358.168 358.633 L 358.168 358.633 L 358.168 358.633 Q 357.552 358.892 357.076 359.186 L 357.076 359.186 L 356.628 358.402 L 356.628 358.402 Q 356.88 358.234 357.223 358.059 L 357.223 358.059 L 357.223 358.059 Q 357.566 357.884 357.951 357.744 L 357.951 357.744 L 357.951 357.744 Q 358.336 357.604 358.77 357.513 L 358.77 357.513 L 358.77 357.513 Q 359.204 357.422 359.652 357.422 L 359.652 357.422 L 359.652 357.422 Q 361.052 357.422 361.731 358.185 L 361.731 358.185 L 361.731 358.185 Q 362.41 358.948 362.41 360.222 L 362.41 360.222 L 362.41 364.394 L 361.472 364.394 L 361.374 363.47 L 361.332 363.47 L 361.332 363.47 Q 360.758 363.918 360.065 364.24 L 360.065 364.24 L 360.065 364.24 Q 359.372 364.562 358.644 364.562 L 358.644 364.562 L 358.644 364.562 Q 358.168 364.562 357.748 364.429 L 357.748 364.429 L 357.748 364.429 Q 357.328 364.296 357.013 364.051 L 357.013 364.051 L 357.013 364.051 Q 356.698 363.806 356.516 363.449 L 356.516 363.449 L 356.516 363.449 Q 356.334 363.092 356.334 362.63 Z  M 357.454 362.546 L 357.454 362.546 L 357.454 362.546 Q 357.454 362.84 357.58 363.043 L 357.58 363.043 L 357.58 363.043 Q 357.706 363.246 357.909 363.379 L 357.909 363.379 L 357.909 363.379 Q 358.112 363.512 358.385 363.575 L 358.385 363.575 L 358.385 363.575 Q 358.658 363.638 358.952 363.638 L 358.952 363.638 L 358.952 363.638 Q 359.54 363.638 360.107 363.379 L 360.107 363.379 L 360.107 363.379 Q 360.674 363.12 361.262 362.63 L 361.262 362.63 L 361.262 360.838 L 361.262 360.838 Q 360.17 360.922 359.435 361.076 L 359.435 361.076 L 359.435 361.076 Q 358.7 361.23 358.259 361.447 L 358.259 361.447 L 358.259 361.447 Q 357.818 361.664 357.636 361.937 L 357.636 361.937 L 357.636 361.937 Q 357.454 362.21 357.454 362.546 Z  M 369.662 366.858 L 369.662 366.858 L 369.662 366.858 Q 368.206 365.724 367.359 364.128 L 367.359 364.128 L 367.359 364.128 Q 366.512 362.532 366.512 360.502 L 366.512 360.502 L 366.512 360.502 Q 366.512 358.472 367.359 356.876 L 367.359 356.876 L 367.359 356.876 Q 368.206 355.28 369.662 354.146 L 369.662 354.146 L 370.292 354.734 L 370.292 354.734 Q 368.878 355.924 368.213 357.324 L 368.213 357.324 L 368.213 357.324 Q 367.548 358.724 367.548 360.502 L 367.548 360.502 L 367.548 360.502 Q 367.548 362.28 368.213 363.68 L 368.213 363.68 L 368.213 363.68 Q 368.878 365.08 370.292 366.27 L 370.292 366.27 L 369.662 366.858 Z  M 372.84 364.394 L 372.84 357.59 L 373.736 357.59 L 373.834 358.486 L 373.876 358.486 L 373.876 358.486 Q 374.128 358.01 374.471 357.716 L 374.471 357.716 L 374.471 357.716 Q 374.814 357.422 375.402 357.422 L 375.402 357.422 L 375.402 357.422 Q 376.438 357.422 376.69 358.598 L 376.69 358.598 L 376.69 358.598 Q 376.998 358.066 377.362 357.744 L 377.362 357.744 L 377.362 357.744 Q 377.726 357.422 378.3 357.422 L 378.3 357.422 L 378.3 357.422 Q 379.014 357.422 379.399 357.961 L 379.399 357.961 L 379.399 357.961 Q 379.784 358.5 379.784 359.522 L 379.784 359.522 L 379.784 364.394 L 378.678 364.394 L 378.678 359.62 L 378.678 359.62 Q 378.678 358.416 377.936 358.416 L 377.936 358.416 L 377.936 358.416 Q 377.572 358.416 377.306 358.675 L 377.306 358.675 L 377.306 358.675 Q 377.04 358.934 376.774 359.466 L 376.774 359.466 L 376.774 364.394 L 375.85 364.394 L 375.85 359.62 L 375.85 359.62 Q 375.85 358.416 375.08 358.416 L 375.08 358.416 L 375.08 358.416 Q 374.716 358.416 374.464 358.675 L 374.464 358.675 L 374.464 358.675 Q 374.212 358.934 373.946 359.466 L 373.946 359.466 L 373.946 364.394 L 372.84 364.394 Z  M 381.576 366.27 L 381.576 366.27 L 381.576 366.27 Q 381.716 366.312 381.877 366.34 L 381.877 366.34 L 381.877 366.34 Q 382.038 366.368 382.192 366.368 L 382.192 366.368 L 382.192 366.368 Q 382.906 366.368 383.354 365.955 L 383.354 365.955 L 383.354 365.955 Q 383.802 365.542 384.054 364.912 L 384.054 364.912 L 384.264 364.408 L 381.086 357.59 L 382.248 357.59 L 383.914 361.356 L 383.914 361.356 Q 384.11 361.804 384.327 362.322 L 384.327 362.322 L 384.327 362.322 Q 384.544 362.84 384.754 363.33 L 384.754 363.33 L 384.81 363.33 L 384.81 363.33 Q 384.992 362.84 385.181 362.329 L 385.181 362.329 L 385.181 362.329 Q 385.37 361.818 385.538 361.356 L 385.538 361.356 L 387.022 357.59 L 388.114 357.59 L 385.118 364.954 L 385.118 364.954 Q 384.922 365.458 384.67 365.892 L 384.67 365.892 L 384.67 365.892 Q 384.418 366.326 384.068 366.641 L 384.068 366.641 L 384.068 366.641 Q 383.718 366.956 383.263 367.138 L 383.263 367.138 L 383.263 367.138 Q 382.808 367.32 382.234 367.32 L 382.234 367.32 L 382.234 367.32 Q 381.73 367.32 381.338 367.18 L 381.338 367.18 L 381.576 366.27 Z  M 389.64 361.006 L 389.64 361.006 L 389.64 361.006 Q 389.64 360.18 389.899 359.515 L 389.899 359.515 L 389.899 359.515 Q 390.158 358.85 390.585 358.388 L 390.585 358.388 L 390.585 358.388 Q 391.012 357.926 391.572 357.674 L 391.572 357.674 L 391.572 357.674 Q 392.132 357.422 392.734 357.422 L 392.734 357.422 L 392.734 357.422 Q 393.364 357.422 393.84 357.66 L 393.84 357.66 L 393.84 357.66 Q 394.316 357.898 394.792 358.304 L 394.792 358.304 L 394.75 357.044 L 394.75 354.426 L 395.898 354.426 L 395.898 364.394 L 394.946 364.394 L 394.848 363.498 L 394.806 363.498 L 394.806 363.498 Q 394.386 363.932 393.805 364.247 L 393.805 364.247 L 393.805 364.247 Q 393.224 364.562 392.594 364.562 L 392.594 364.562 L 392.594 364.562 Q 391.922 364.562 391.383 364.324 L 391.383 364.324 L 391.383 364.324 Q 390.844 364.086 390.452 363.631 L 390.452 363.631 L 390.452 363.631 Q 390.06 363.176 389.85 362.518 L 389.85 362.518 L 389.85 362.518 Q 389.64 361.86 389.64 361.006 Z  M 390.83 360.992 L 390.83 360.992 L 390.83 360.992 Q 390.83 362.224 391.355 362.91 L 391.355 362.91 L 391.355 362.91 Q 391.88 363.596 392.832 363.596 L 392.832 363.596 L 392.832 363.596 Q 393.84 363.596 394.75 362.574 L 394.75 362.574 L 394.75 359.186 L 394.75 359.186 Q 394.288 358.752 393.847 358.57 L 393.847 358.57 L 393.847 358.57 Q 393.406 358.388 392.958 358.388 L 392.958 358.388 L 392.958 358.388 Q 392.51 358.388 392.125 358.577 L 392.125 358.577 L 392.125 358.577 Q 391.74 358.766 391.453 359.109 L 391.453 359.109 L 391.453 359.109 Q 391.166 359.452 390.998 359.928 L 390.998 359.928 L 390.998 359.928 Q 390.83 360.404 390.83 360.992 Z  M 398.334 362.63 L 398.334 362.63 L 398.334 362.63 Q 398.334 362.056 398.607 361.629 L 398.607 361.629 L 398.607 361.629 Q 398.88 361.202 399.475 360.894 L 399.475 360.894 L 399.475 360.894 Q 400.07 360.586 401.008 360.39 L 401.008 360.39 L 401.008 360.39 Q 401.946 360.194 403.262 360.082 L 403.262 360.082 L 403.262 360.082 Q 403.248 359.732 403.15 359.424 L 403.15 359.424 L 403.15 359.424 Q 403.052 359.116 402.842 358.885 L 402.842 358.885 L 402.842 358.885 Q 402.632 358.654 402.289 358.514 L 402.289 358.514 L 402.289 358.514 Q 401.946 358.374 401.456 358.374 L 401.456 358.374 L 401.456 358.374 Q 400.784 358.374 400.168 358.633 L 400.168 358.633 L 400.168 358.633 Q 399.552 358.892 399.076 359.186 L 399.076 359.186 L 398.628 358.402 L 398.628 358.402 Q 398.88 358.234 399.223 358.059 L 399.223 358.059 L 399.223 358.059 Q 399.566 357.884 399.951 357.744 L 399.951 357.744 L 399.951 357.744 Q 400.336 357.604 400.77 357.513 L 400.77 357.513 L 400.77 357.513 Q 401.204 357.422 401.652 357.422 L 401.652 357.422 L 401.652 357.422 Q 403.052 357.422 403.731 358.185 L 403.731 358.185 L 403.731 358.185 Q 404.41 358.948 404.41 360.222 L 404.41 360.222 L 404.41 364.394 L 403.472 364.394 L 403.374 363.47 L 403.332 363.47 L 403.332 363.47 Q 402.758 363.918 402.065 364.24 L 402.065 364.24 L 402.065 364.24 Q 401.372 364.562 400.644 364.562 L 400.644 364.562 L 400.644 364.562 Q 400.168 364.562 399.748 364.429 L 399.748 364.429 L 399.748 364.429 Q 399.328 364.296 399.013 364.051 L 399.013 364.051 L 399.013 364.051 Q 398.698 363.806 398.516 363.449 L 398.516 363.449 L 398.516 363.449 Q 398.334 363.092 398.334 362.63 Z  M 399.454 362.546 L 399.454 362.546 L 399.454 362.546 Q 399.454 362.84 399.58 363.043 L 399.58 363.043 L 399.58 363.043 Q 399.706 363.246 399.909 363.379 L 399.909 363.379 L 399.909 363.379 Q 400.112 363.512 400.385 363.575 L 400.385 363.575 L 400.385 363.575 Q 400.658 363.638 400.952 363.638 L 400.952 363.638 L 400.952 363.638 Q 401.54 363.638 402.107 363.379 L 402.107 363.379 L 402.107 363.379 Q 402.674 363.12 403.262 362.63 L 403.262 362.63 L 403.262 360.838 L 403.262 360.838 Q 402.17 360.922 401.435 361.076 L 401.435 361.076 L 401.435 361.076 Q 400.7 361.23 400.259 361.447 L 400.259 361.447 L 400.259 361.447 Q 399.818 361.664 399.636 361.937 L 399.636 361.937 L 399.636 361.937 Q 399.454 362.21 399.454 362.546 Z  M 408.484 361.748 L 408.484 358.528 L 406.566 358.528 L 406.566 357.66 L 408.526 357.59 L 408.68 355.686 L 409.632 355.686 L 409.632 357.59 L 412.978 357.59 L 412.978 358.528 L 409.632 358.528 L 409.632 361.762 L 409.632 361.762 Q 409.632 362.224 409.716 362.567 L 409.716 362.567 L 409.716 362.567 Q 409.8 362.91 409.996 363.148 L 409.996 363.148 L 409.996 363.148 Q 410.192 363.386 410.528 363.505 L 410.528 363.505 L 410.528 363.505 Q 410.864 363.624 411.354 363.624 L 411.354 363.624 L 411.354 363.624 Q 411.844 363.624 412.236 363.54 L 412.236 363.54 L 412.236 363.54 Q 412.628 363.456 412.992 363.316 L 412.992 363.316 L 413.244 364.156 L 413.244 364.156 Q 412.782 364.324 412.222 364.443 L 412.222 364.443 L 412.222 364.443 Q 411.662 364.562 411.102 364.562 L 411.102 364.562 L 411.102 364.562 Q 410.36 364.562 409.856 364.359 L 409.856 364.359 L 409.856 364.359 Q 409.352 364.156 409.051 363.785 L 409.051 363.785 L 409.051 363.785 Q 408.75 363.414 408.617 362.896 L 408.617 362.896 L 408.617 362.896 Q 408.484 362.378 408.484 361.748 L 408.484 361.748 Z  M 415.134 362.63 L 415.134 362.63 L 415.134 362.63 Q 415.134 362.056 415.407 361.629 L 415.407 361.629 L 415.407 361.629 Q 415.68 361.202 416.275 360.894 L 416.275 360.894 L 416.275 360.894 Q 416.87 360.586 417.808 360.39 L 417.808 360.39 L 417.808 360.39 Q 418.746 360.194 420.062 360.082 L 420.062 360.082 L 420.062 360.082 Q 420.048 359.732 419.95 359.424 L 419.95 359.424 L 419.95 359.424 Q 419.852 359.116 419.642 358.885 L 419.642 358.885 L 419.642 358.885 Q 419.432 358.654 419.089 358.514 L 419.089 358.514 L 419.089 358.514 Q 418.746 358.374 418.256 358.374 L 418.256 358.374 L 418.256 358.374 Q 417.584 358.374 416.968 358.633 L 416.968 358.633 L 416.968 358.633 Q 416.352 358.892 415.876 359.186 L 415.876 359.186 L 415.428 358.402 L 415.428 358.402 Q 415.68 358.234 416.023 358.059 L 416.023 358.059 L 416.023 358.059 Q 416.366 357.884 416.751 357.744 L 416.751 357.744 L 416.751 357.744 Q 417.136 357.604 417.57 357.513 L 417.57 357.513 L 417.57 357.513 Q 418.004 357.422 418.452 357.422 L 418.452 357.422 L 418.452 357.422 Q 419.852 357.422 420.531 358.185 L 420.531 358.185 L 420.531 358.185 Q 421.21 358.948 421.21 360.222 L 421.21 360.222 L 421.21 364.394 L 420.272 364.394 L 420.174 363.47 L 420.132 363.47 L 420.132 363.47 Q 419.558 363.918 418.865 364.24 L 418.865 364.24 L 418.865 364.24 Q 418.172 364.562 417.444 364.562 L 417.444 364.562 L 417.444 364.562 Q 416.968 364.562 416.548 364.429 L 416.548 364.429 L 416.548 364.429 Q 416.128 364.296 415.813 364.051 L 415.813 364.051 L 415.813 364.051 Q 415.498 363.806 415.316 363.449 L 415.316 363.449 L 415.316 363.449 Q 415.134 363.092 415.134 362.63 Z  M 416.254 362.546 L 416.254 362.546 L 416.254 362.546 Q 416.254 362.84 416.38 363.043 L 416.38 363.043 L 416.38 363.043 Q 416.506 363.246 416.709 363.379 L 416.709 363.379 L 416.709 363.379 Q 416.912 363.512 417.185 363.575 L 417.185 363.575 L 417.185 363.575 Q 417.458 363.638 417.752 363.638 L 417.752 363.638 L 417.752 363.638 Q 418.34 363.638 418.907 363.379 L 418.907 363.379 L 418.907 363.379 Q 419.474 363.12 420.062 362.63 L 420.062 362.63 L 420.062 360.838 L 420.062 360.838 Q 418.97 360.922 418.235 361.076 L 418.235 361.076 L 418.235 361.076 Q 417.5 361.23 417.059 361.447 L 417.059 361.447 L 417.059 361.447 Q 416.618 361.664 416.436 361.937 L 416.436 361.937 L 416.436 361.937 Q 416.254 362.21 416.254 362.546 Z  M 424.738 366.858 L 424.108 366.27 L 424.108 366.27 Q 425.522 365.08 426.187 363.68 L 426.187 363.68 L 426.187 363.68 Q 426.852 362.28 426.852 360.502 L 426.852 360.502 L 426.852 360.502 Q 426.852 358.724 426.187 357.324 L 426.187 357.324 L 426.187 357.324 Q 425.522 355.924 424.108 354.734 L 424.108 354.734 L 424.738 354.146 L 424.738 354.146 Q 426.194 355.28 427.041 356.876 L 427.041 356.876 L 427.041 356.876 Q 427.888 358.472 427.888 360.502 L 427.888 360.502 L 427.888 360.502 Q 427.888 362.532 427.041 364.128 L 427.041 364.128 L 427.041 364.128 Q 426.194 365.724 424.738 366.858 L 424.738 366.858 Z " fill-rule="evenodd" fill="rgb(255,255,255)"/></g></svg>